<?xml version="1.0" encoding="UTF-8"?>
<svg id="Capa_1" data-name="Capa 1" xmlns="http://www.w3.org/2000/svg" viewBox="0 0 517.2 529.4">
  <defs>
    <style>
      .cls-1 {
        fill: none;
        stroke: #f39200;
        stroke-miterlimit: 10;
        stroke-width: 6px;
      }

      .cls-2 {
        fill: #f39200;
      }
    </style>
  </defs>
  <g>
    <path class="cls-2" d="M406.98,404.39c2.01-.37,2.66-.48,2.88-.76.22-.25,0-.52.32-.61-1.81.05-2.88.43-3.48.67-.6.26-.72.48-.66.58.14.21,1.05.19.94.11Z"/>
    <path class="cls-2" d="M370.63,409.05c.2-.32.39-.66.61-.97-1.12,1.01-2.06,2.2-2.77,3.51-.33.62-.7,1.42-.87,1.95-.16.51-.19.87-.27,1.29.1-.37.12-.64.28-1.09.08-.32.43-1.08.72-1.6.61-1.14,1.39-2.18,2.3-3.1Z"/>
    <path class="cls-2" d="M337.66,410.62c.98-.69,2.2-1.71,3.83-2.58,1.61-.89,3.66-1.6,5.93-1.69,2.25-.1,4.75.46,6.9,1.78,2.14,1.27,3.95,3.41,4.88,5.49.26.58.37,1.23.7,1.74.08.31.2.62.36.9.87.13,1.75-.07,2.45-.5-.63.03-1.31-.16-1.86-.59-.6-.41-.86-1.13-1.18-1.8-1.07-2.16-2.91-4.27-5-5.55-2.1-1.32-4.48-2-6.72-2-4.56-.09-8.26,2.41-10.28,4.79Z"/>
    <path class="cls-2" d="M329.12,408.81c.41.97-.54-.09-.88-.45-.18-.17-.18-.21.21.25.19.24.5.58.89,1.13.19.28.43.59.65.99.23.38.53.89.67,1.2.12.17.19.42.43.62-.03-.15-.02-.21-.02-.3-.06-.08-.09-.2-.19-.44-.03-.11-.71-1.57-1.77-3Z"/>
    <path class="cls-2" d="M331.07,412.26c.31.39.3.12.22-.05-.06-.18-.15-.41-.22.05Z"/>
    <path class="cls-2" d="M305.97,406.55c2.2-2.25,5.12-3.83,8.26-4.41-1.01-.11-3.66.42-5.5,1.35-1.83.89-2.96,1.78-1.7.67-2.09,1.54-3.2,3.02-3.84,3.99-.64.98-.8,1.5-.74,1.56.16.16,1.31-1.51,3.52-3.15Z"/>
    <path class="cls-2" d="M302.88,412.88c.05-.23.04-.37.2-.79.01-.1.24-.55.4-.88.17-.36.37-.69.56-1.03-.29.3-.61.71-.93,1.39-.3.62-.29.88-.23,1.32Z"/>
    <path class="cls-2" d="M311.44,403.78c-3.1,1.24-5.71,3.53-7.4,6.39,1-.91,1.2-.74,2.9-3.49-.17.45.04.25.7-.38.67-.61,1.85-1.65,3.8-2.52Z"/>
    <path class="cls-2" d="M316.95,403.25c2.5.22,5.16,1.46,6.03,2.16.45.34.5.49-.02.29-.54-.14-1.66-.7-3.74-1.04,3.93.86,6.27,2.92,7.59,4.16,1.32,1.3,1.79,1.93,1.73,1.57-.07-.33-.73-1.65-2.48-3.34-1.73-1.62-4.83-3.66-9.12-3.81Z"/>
    <path class="cls-2" d="M337.47,413.82c.91-1.48,2.1-2.73,3.47-3.63.99-1.04,2.22-1.87,3.57-2.44-1.02.38-3.32,1.29-4.88,2.85-1.61,1.49-2.44,3.28-2.16,3.22Z"/>
    <path class="cls-2" d="M279.75,402.43c-.24.26.61.19,1.58.19.98,0,2.08.13,2.43.31,2.17-.28,4.46-.13,6.64.6-1.6-.79-4.14-1.38-6.33-1.37-2.2-.05-4.01.45-4.32.27Z"/>
    <path class="cls-2" d="M283.75,402.92c-3.28.45-6.35,2.07-8.58,4.44,3.27-2.92,5.94-3.41,7.24-3.81,1.37-.32,1.63-.46,1.34-.63Z"/>
    <path class="cls-2" d="M303.96,414.55c.11-.27.18-.55.23-.83.04-.26.1-.56.23-.94.37-1,1.03-2.22,1.74-3.2,1.45-2.04,3.49-3.65,5.83-4.65-2.81,1.14-5.17,3.22-6.7,5.8-.37.62-.74,1.37-.97,1.95-.16.46-.22.77-.28,1.08-.12.65-.46,1.25-.94,1.68.34-.23.64-.53.86-.89Z"/>
    <path class="cls-2" d="M268.81,411.39c.27.04.56-.06.76-.26-.25.22-.58.27-.91.13l-.72-1.07c-.27-.41-.59-.78-.89-1.16.29.38.6.76.86,1.18.28.42.55.85.69,1.09l.2.1Z"/>
    <path class="cls-2" d="M247.35,402.78c2-1.1.47-.89-1.07-.41-1.5.51-2.98,1.23-.86-.28-1.75.99-3.25,2.27-4.46,3.71-.61.72-1.15,1.48-1.62,2.26-.23.4-.47.78-.66,1.19l-.29.61c-.09.2-.21.44-.19.46-.03.12-.09.32-.09.38l.05.09c.04.07.06.14.08.23.04.16.04.35,0,.51.08-.12.14-.23.18-.35l.06-.17s.04-.13.36-.73c1.68-3.18,4.57-6.04,8.49-7.48Z"/>
    <path class="cls-2" d="M238.03,412.3c.1-.03.2-.07.29-.12l.04-.02s.11,0-.09,0h-.44c-.23-.02-.06-.02-.07-.02h.08s.17-.03.17-.03l.34-.04.17-.02h.04s-.19-.01-.19-.01h-.48c.16-.14.3-.3.36-.52-.09.14-.21.24-.37.37,1.64.07-1.36.11.47.19l-.32.22Z"/>
    <path class="cls-2" d="M269.84,413.72c-.06-.05-.13-.11-.22-.2-.04-.04-.09-.08-.15-.13l-.08-.07-.05-.03s-.07-.01.03-.02l.31-.02c.33,0,.11-.02.1-.03l-.15-.04c-.11-.02-.22-.05-.34-.07l-.18-.03-.09-.02h.47c.19-.03-.01-.06,0-.08-.15-.08-.33-.16-.53-.29.07.38.25.71.51,1.02-.03,0,.15,0-.06,0-.17,0-.51,0-.35,0h.3s.31,0,.31,0c.02,0,.48,0-.19,0-.07,0,.25.01.37,0Z"/>
    <path class="cls-2" d="M269.5,413.74l-.03-.03c-1.03.07-1.59-.55-1.73-.79.13.17.57.86,1.76.82Z"/>
    <path class="cls-2" d="M270.07,413.69c-.08.01-.15.02-.23.02.11.09.18.11.23-.02Z"/>
    <path class="cls-2" d="M296.52,410.81c-.86-1.08-2.09-2.29-3.44-3.16-1.34-.88-2.76-1.41-3.74-1.6-.98-.18-1.5-.13-1.2.12.28.3,1.46.68,3.36,2.14,1.55.71,1.28.26,1.41-.04.06-.13.22-.2.78.06.52.29,1.52.87,2.83,2.48Z"/>
    <path class="cls-2" d="M271.85,414.1c.21-.2.39-.44.51-.71.12-.28.2-.5.44-.97.64-1.27,1.67-2.73,2.8-3.79-.27-.06-1.81,1-.03-1.16-1.27,1.31-2.29,2.84-3.02,4.51-.13.32-.18.5-.25.73l-.09.48c-.06.32-.19.64-.36.91Z"/>
    <path class="cls-2" d="M270.48,415.18c.56-.18,1.05-.57,1.37-1.08-.31.3-.7.51-1.1.61-.08.16-.16.32-.27.47Z"/>
    <path class="cls-2" d="M240.52,410.73c-.09.22-.26.57-.29.7l-.1.37c-.07.24-.04.3-.08.47-.04.29-.16.56-.34.79-.36.47-.98.66-1.61.63.72,0,.34,0,.25,0h-.38s.37.02.37.02c.05,0,.52.01-.24.02.71.16,1.55,0,2.05-.62.12-.15.22-.32.3-.5.09-.2.11-.3.29-.67l.11-.24.25-.46c.17-.31.33-.61.53-.89.36-.58.77-1.13,1.2-1.65.16-.4.59-1.18.45-1.25-.07-.04-.3.08-.77.55-.47.46-1.18,1.28-1.99,2.74Z"/>
    <path class="cls-2" d="M259.78,404.38c-.29-.12-.67-.25-.94-.34.55.29.98.53.94.34Z"/>
    <path class="cls-2" d="M208.11,413.28c.1.01.19.02.29.03-.02-.06-.03-.11-.05-.18-.07.05-.15.1-.23.14Z"/>
    <path class="cls-2" d="M243.6,408.08c3.19-2.91,5.67-3.83,8.03-4.55-3.2.54-6.4,2.28-8.8,5.15-.13.37-.13.46.77-.61Z"/>
    <path class="cls-2" d="M233.79,407.26c.49.62.96,1.3,1.4,2.05.21.38.45.76.64,1.18.21.42.42.87.51,1.15.03.19.04.44.1.69,0-.22.03-.52.02-.76-.08-.33-.36-.93-.6-1.43-.25-.5-.52-.96-.79-1.37-.53-.81-1.04-1.36-1.29-1.52Z"/>
    <path class="cls-2" d="M257.46,403.31c.22.05.42.1.66.16-1.39-.63-1.24-.43-.66-.16Z"/>
    <path class="cls-2" d="M257.46,403.31c-2.3-.45-4.12-.22-5.83.22,2.6-.46,5.12-.16,7.2.51-.5-.26-1-.53-1.37-.73Z"/>
    <path class="cls-2" d="M200.41,416.63c.29-.04.91.7,2.14,1.29.61.3,1.37.52,2.21.57.86.02,1.73-.08,2.65-.08,1.12.03,2.35,0,3.45-.64,1.1-.58,1.95-1.62,2.45-2.79.45-1.68.86-2.64.85-3.27,0-.62-.38-.87-1.12-.71-.38.08-.8.29-1.3.61-.24.17-.49.37-.75.6-.24.19-.4.28-.61.44-.63.39-1.26.68-2,.65.06.15.14.31.01.57-.12.26-.48.65-1.46.78.87.05-.95.08-.22.13-.26.04-.58.11-.94.1.13.08.34.15.61.2l.21.05.12.02c-.14,0-.39.01-.21.02.14.02.29.03.45.05l.23.02h.1s-.27.02-.27.02c.63.13,1.43.24,2.13-.02.7-.23,1.27-.71,1.61-1.13.6-.87,1.03-1.24.62.61-.54,1.25-1.5,1.85-2.26,2.08-.78.24-1.42.13-1.9.1.2,0-.09-.02-.17-.03-.12-.01-.24-.03-.35-.04-.36-.03-.09-.06-.33-.09-.28-.07-.52-.14-.76-.23-.47-.2-.99-.47-1.69-1.16.39.6.14.76-.56.55-.33-.12-.76-.38-1.13-.8-.39-.41-.62-1.01-1.02-1.57-.89-1.48-2.26-2.72-3.27-3.25-1.04-.54-1.67-.51-1.48.08,1.46.88,2.72,2.2,3.59,3.81.45.78.67,1.66,1.24,2.33-.17.42-1.75-2.23-.9.12Z"/>
    <path class="cls-2" d="M218.73,403.82c1.31-.39,2.66-.58,4.02-.59-2.32-.12-4.37.19-6.49.97-2.1.8-4.36,2.06-6.59,4.65-.47.77-.92,1.69-1.11,2.2-.04.16-.08.31-.12.45,0,.07,0,.14,0,.21,0,.28-.02.5-.05.69-.06.36-.08.57-.04.73.37-.25.61-.66.75-1.1.02-.07.14-.32.22-.5.02-.06.13-.25.24-.46l.32-.58c.45-.76.95-1.47,1.51-2.13,2.23-2.65,5.35-4.45,8.69-4.98-.45.14-.9.26-1.34.43Z"/>
    <path class="cls-2" d="M235.94,412.56c-.19-.04-.37-.18-.61-.37-.44-.63-1.22-1.67-1.9-2.33-.7-.73-1.43-1.28-1.98-1.6-1.15-.6-1.34-.49-.07,1.35,1.22,1.3,2,2.65,2.41,3.43.6,1.36,1.08,1.67,1.59,1.81.5.11,1.01.28,2.14.17-.9.02-1.49-.38-1.82-.67-.34-.31-.45-.56-.49-.67-.08-.24.13.01.45.2.32.2.74.29.83.16.14-.15-.25-.34-.61-1.37.28.47.71.78,1.16.94.22.08.45.12.67.12h.33s.16-.02.16-.02c.06,0-.71,0-.42,0h.21s-.22-.01-.22-.01c-.2,0,.7,0,.43,0l-.16-.02-.32-.05c-.21-.05-.4-.14-.57-.26-.34-.24-.59-.61-.69-1.01,0,.05,0,.09,0,.13v.02s0,0,0,0c.02.26.02.37-.07.13-.02,0-.05-.06-.06-.08-.11.06-.24.05-.37.02-.08-.33-.12-.54-.14-.62-.19-.53-.11-.42.1-.05.14.15.26.51.42.66.04-.02.1-.02.13-.05v-.02c-.16-.2-.23-.45-.38-.68l-.18-.36-.27-.47c-.18-.31-.36-.63-.57-.92-.4-.6-.85-1.17-1.31-1.71-.94-1.08-2.03-2-3.2-2.76-2.35-1.51-5.09-2.35-7.79-2.33,1.83.12,3.92.52,6.25,1.75,1.16.62,2.36,1.46,3.54,2.61.59.57,1.16,1.24,1.71,1.98.26.38.54.77.79,1.2.24.42.52.91.65,1.22.06.1.16.33.26.56Z"/>
    <path class="cls-2" d="M283.58,408.46c-.43-.03-.42-.08-.47-.14-.85.31-1.14.43.47.14Z"/>
    <path class="cls-2" d="M278.23,410.33c.36-.39.67-.8,1.3-1.3.62-.49,1.59-1.12,3.31-1.44,3-.14.03.41.28.73.93-.35,2.69-.52,3.44-.55.38-.05.5-.13.12-.3-.38-.15-1.29-.46-2.99-.39-.35.08-.7.18-1.03.31-1.5.23-3.07.82-4.47,1.67-1.39.86-2.59,2-3.46,3.13-.99,1.36-1.13,1.61-1.42,1.97-.26.29-.43.34-.37.19.58-.16.92-.39,1.66-1.09.84-.9,1.92-1.95,3.64-2.92Z"/>
    <path class="cls-2" d="M256.89,406.18c-4.5-1.14-9.38.64-12.16,4.28,1.67-1.6,3.74-2.61,5.84-2.96l-.45-.38c1.77-.52,3.06-.55,3.96-.56.9-.01,1.42.04,1.76,0,.67-.03.55-.32,1.06-.38Z"/>
    <path class="cls-2" d="M207.48,412.99c.03-.37,0-.74-.1-1.11-.07.4-.3.72-.64.97,1.29.11-1.28.19.16.3-.16.1-.34.2-.54.28.18-.02.35-.06.51-.1-1.37-.05,1.11-.07-.09-.11.25-.06.49-.11.7-.24Z"/>
    <path class="cls-2" d="M202.73,408.2c.38.03.76.07,1.16.13-1.38-1.58-2.99-2.87-4.77-3.78,1.39,1.02,2.62,2.25,3.61,3.65Z"/>
    <path class="cls-2" d="M218.81,103.65c.52.14,1.05.18,1.57.14-.74.02-1.21-.08-1.57-.14Z"/>
    <path class="cls-2" d="M195.05,98.17c-.06.35-.07.72-.1,1.08.59-1.67.98-2.34.1-1.08Z"/>
    <path class="cls-2" d="M54.15,288.05c-.22-3.81-2.05-7.79-4.17-10.06-1.03-1.15-2.05-1.94-2.76-2.35-.43-.26-.41-.2-.52-.2-.08.02-.13.09-.15.22.04.11.06.2.11.32l.39.51c.26.34.49.68.71,1.04,4.28,2.93,5.98,7.17,6.38,10.51Z"/>
    <path class="cls-2" d="M50.81,97.61c-.43-.15-.88-.24-1.36-.35-1.25.32-2.26.62-3.22.89,1.37-.16,2.86-.44,4.58-.55Z"/>
    <path class="cls-2" d="M56.19,96.12c1.19,1.25,1.8,2.87,2.33,4.52.27.8.47,1.25.85,1.85-.26-.51-.49-.94-.8-1.87-.46-1.37-.98-3.07-2.38-4.5Z"/>
    <path class="cls-2" d="M315.84,103.37c.37-.48.6-1.01.71-1.52-.73.59-.98.69-.96.91,0,.2.26.36.25.62Z"/>
    <path class="cls-2" d="M82.58,412.71c-.36.02-.69-.08-.94-.14.17-.06.11-.1-.18-.15-.22-.05-.43-.13-.61-.25-.36-.23-.61-.55-.75-.9.08.58.4,1.11.82,1.41.21.15.43.23.65.29l.17.04s-.65,0-.4.02l.2.02.38.03c.09,0,.45.02-.21.02.47.07.83-.04.88-.39Z"/>
    <path class="cls-2" d="M207.33,104.78c.21.3.36.54.51.65.41.65.8,1.06.84.91-.28-.43-.51-.82-.62-1.03-.4-.63-.64-.81-.73-.54Z"/>
    <path class="cls-2" d="M67.88,401.73c1.08.23,2.13.56,3.15,1.02,1.79.61,3.5,1.56,5.03,2.9.76.68,1.49,1.43,2.14,2.31.34.43.63.9.94,1.38.27.47.61,1.07.74,1.4.08.15.13.34.2.54-.03-.21-.03-.43-.07-.61-.11-.37-.48-1.09-.77-1.64-.33-.58-.68-1.15-1.09-1.69-.81-1.08-1.76-2.07-2.84-2.9-2.16-1.65-4.83-2.66-7.44-2.7Z"/>
    <path class="cls-2" d="M463,329.04c.06.16.14.36.2.51.12-.03,0-.23-.2-.51Z"/>
    <path class="cls-2" d="M440.15,405.45c1.8-.28,4.93.01,7.51,1.42-1.19-.65-3.52-1.86-7.51-1.42Z"/>
    <path class="cls-2" d="M148.01,407.69c3.27-3.56.39-.69,0,0h0Z"/>
    <path class="cls-2" d="M166.76,408.04c-.69-.39-1.28-.54-1.45-.4.35-.05.87.07,1.45.4Z"/>
    <path class="cls-2" d="M41.82,416.74c-.07-.05-.12-.11-.2-.18.6.75.51.6.2.18Z"/>
    <path class="cls-2" d="M153.81,403.68c-1.62.62-3.41,1.67-4.98,3.29.74-.63,2.05-2.04,4.98-3.29Z"/>
    <path class="cls-2" d="M152.77,403.69c1.47-.74,2.72-1.1,3.91-1.34.28-.14.28-.21-.3-.11-.57.12-1.76.39-3.61,1.44Z"/>
    <path class="cls-2" d="M145.79,411.55c.14-.33-.02-.18.75-1.55.66-1.13,1.42-2.16,2.29-3.03-.68.65-.95.95-.82.72-.43.56-.94,1.26-1.48,2.23-.13.24-.26.5-.41.77-.05.12-.11.25-.17.39-.1.23-.1.3-.17.47Z"/>
    <path class="cls-2" d="M458.79,126.56c-.04.15-.08.32-.14.48.12,1.19.3,1.48.27,1.3,0-.18-.15-.87-.13-1.78Z"/>
    <path class="cls-2" d="M44.63,224.49c.01.09.05.13.05.21,0-.09.02-.2.02-.28l-.07.06Z"/>
    <path class="cls-2" d="M40.88,219.73c.47.12.52.11.69.13.16.01.3.07.45.1.29.09.56.21.81.36.49.3.88.69,1.17,1.12.57.88.78,1.88.7,2.97.84-.77,1.54-1.86,1.94-3.21-.92-.76-1.91-1.23-2.87-1.46-.48-.12-.96-.15-1.4-.15-.23.02-.44.02-.66.07-.24.03-.32.11-.83.05Z"/>
    <path class="cls-2" d="M256.73,99.9l-.61,1.24c-.16.28-.22.28-.33.42-.22.21-.43.41-.68.56-.47.33-1,.52-1.5.61.67-.71,1.01-1.48,1.15-2.1.12-.42.76-2.5,1.41-3.51.66-1.16,1.4-2.03,2.03-2.65,1.28-1.25,2.03-1.65,1.56-1.57-.4.15-2.2.7-4.43,3.45.1.34-.09.96-.33,1.96-.14.51-.3,1.06-.38,1.51-.17.67-.12.63-.13.8-.06.55-.5,1.25-1.23,1.63-.7.39-1.74.44-2.57.1-.43-.16-.81-.43-1.16-.73-.17-.16-.33-.32-.46-.49-.06-.09-.15-.17-.2-.26-.05-.07-.13-.16-.25-.43-1.18-3.2-3.24-5.12-5-5.99-1.76-.87-3.06-.81-3.41-.47-.62-.21-1.26-.35-1.92-.46l-.5-.06-.25-.03-.8-.03-.64-.08c.16-.03-1.41-.06-1.45-.07-.35-.02-.69-.02-1.04-.01-.68.02-1.37.1-2.04.26,1.13-.32,1.8-.43,2.48-.52.17-.03.34-.03.52-.05l.28-.02h.15s.52-.01.52-.01c.32,0,.69,0,1.15,0-4.28-.68-7.03.57-8.7,2.15-1.68,1.58-2.31,3.32-2.7,5.18-.05.35-.16.86-.18,1.09-.01.17,0,.37-.04.55-.04.4-.19.81-.44,1.26-.5.87-1.65,1.9-3.56,1.93-1.35-.03-2.33-.62-2.71-1.02-.39-.43-.28-.54.47-.38-1.2-.37-2.31-1.04-3.14-2.49-.55-1.22-1.09-2.38-1.91-3.34-1.36-1.73-2.11-2.17-1.79-2.16.24.06,1.58.72,2.76,2.7-1.06-1.75-2.69-3.11-4.51-3.86-.91-.38-1.88-.6-2.86-.68-.25-.02-.49-.04-.74-.04h-1.23s-1.52,0-1.52,0c-3.74-.14-7.43,2.09-8.9,5.69v-.22c-.11.41-.3.97-.4,1.4-.08.33-.17.69-.26,1.07-.12.48-.32,1.01-.61,1.51-.58,1-1.53,1.84-2.25,2.21-1.28.12-.97-.08-.47-.24.5-.2,1.15-.57.8-.62-1.44.89-3.4,1.16-5.19.53-.84-.93-.1-.84,1.05-.67,1.18.16,2.97.02,4.34-.73-1.03-.13-1.62-.37-2.12-.46-.5-.11-.9-.11-1.36-.12-.46-.01-1,0-1.66-.3-.67-.34-1.37-.74-1.97-2.11-.6-1.6-1.31-3.32-2.75-4.77-1.39-1.47-3.36-2.66-5.75-3.1,2.01.16,3.98.95,5.6,2.27,1.67,1.3,2.77,3.13,3.6,5.21l.15.29c-.01-.12-.02-.23-.03-.36-.47-2.55-1.69-5.05-3.97-6.82-1.11-.88-2.43-1.57-3.89-1.97-.73-.2-1.49-.35-2.3-.39-2.81-.07-.66-.06-3.27-.11-2.73-.1-5.6.72-8.05,2.74-1.21,1.01-2.31,2.26-3.11,3.82-.45.82-.75,1.55-.97,2.01-.09.07-.19.14-.29.2.05-.01.12-.03.2-.05.04-.02.08-.04.13-.06l.08-.03s.12-.22.18-.33c.14-.28.3-.57.46-.87.21-.37.43-.75.65-1.15.48-.74,1.07-1.46,1.74-2.11,1.34-1.31,3.06-2.26,4.72-2.7,1.67-.44,3.24-.38,4.43-.17.29.02.58.03.86.05l.13.04c.08.03.17.06.24.09.15.06.29.11.4.17-.24.05,1.19.11.97.17.1.06.16.11.18.16.02.05-.01.1-.09.14-.15.05.03.09-.75.13l-.22.02-.04.02-.1.03c-.07.02-.15.04-.23.06-.09.02-.18.04-.28.06-.14.02,0,.04-.93.05-.58.07-1.33.13-2.19.35-1.9.23-4.15,1.21-5.82,3.47-.41.57-.77,1.19-1.06,1.91-.31.72-.56,1.49-.72,1.92-.2.54-.48,1.12-.89,1.71-.36-.39-.91-.05-1.78.28-.83.35-2.19.68-3.59.2.2-.41.39-.85.56-1.29-.96-.13-1.54-.44-2.03-.61-.25-.09-.47-.18-.7-.29-.11-.06-.24-.11-.35-.19-.11-.07-.24-.14-.42-.41-.26-.44-.67-1.11-1.16-1.93-1.63-3.15-4.11-4.56-5.97-5.25-.96-.34-1.81-.54-2.6-.67-2.29-.15-.6-.25-2.71-.4-1.66-.33-2.8-.49-4.03-.46-2.41.83-3.7,2.07-4.42,2.83-.72.8-.9,1.21-.85,1.26.09.11,1.25-1.06,2.56-1.71,1.3-.7,2.61-.9,2.3-.54-.14.2-.71.51-1.67,1.32-.94.82-2.33,2.17-3.28,4.81l-.41.93c-.1.18-.16.23-.23.36-.15.21-.31.4-.47.59-.33.36-.7.67-1.08.93-.77.51-1.59.82-2.5.91-1.79.14-3.84-.38-5.35-2.82-.49-1.07-.96-2.14-1.7-3.06-.72-.94-1.65-1.74-2.71-2.34-2.07-1.36-3.27-1.4-3.57-1.61-.33-.14.1-.22.75-.2,1.3,0,3.35.81,1.68-.14-.94-.23-1.88-.32-2.83-.28l-1.87.12-.44.08-.22.04c-.07,0,0,.01-.18.02l-.61.02c-1.19.15-2.3.42-3.33.93-1.97.78-1.49.29-1.25-.07-1.66.97-2.23,1.89-2.53,2.42-.29.56-.29.86-.36,1.26-.07.4-.2.89-.5,1.97-.15.52-.35,1.28-.54,1.77-.15.43-.41.94-.84,1.5.09.85-1.76,2.43-4.35,2.28-1.27-.06-2.62-.52-3.72-1.36-1.13-.88-1.93-1.89-2.58-3.33-.61-1.58-1.3-3.05-2.47-4.09-1.12-1.06-2.5-1.71-3.87-1.92-1.55-.57-1.15-.66-.36-.76.77-.08,1.87.11,1.45-.35-.74-.24-1.47-.37-2.14-.42-.33-.03-.66-.03-.96-.03-.42,0-.81.02-1.16.03-.3,0-.26,0-.31.01h-.11c-.07.02-.14.03-.21.04-.13.02-.24.03-.33.05-.08.02-.11.03-.47.05-.24.01-.36.03-.34.04-3.55.09-5.85,1.8-7.15,3.53-.65.89-1.07,1.78-1.37,2.7-.22.64-.42,1.23-.63,1.83-.29.72-.68,1.42-1.34,2.2-.67.75-1.64,1.62-3.32,2.12-2.35-.1-4.42-1.4-5.57-3.23.84,1.46,1.13,1.92.43,1.95-.64-.02-2.18-.68-3.48-2.59-.62-1.01-1.09-2.17-2.1-2.96-.95-.81-2.19-1.28-3.4-1.28,1.16.4,2.03,1.24,2.56,2.09.55.86.72,1.76.84,2.42-.59-1.76-2.25-2.97-3.97-2.99l-5.26.32h-.14c-.82-.15-.76-.42,0-.76.29-.16.77-.34,1.38-.52-.55.08-1.06.16-1.44.23-.25.04-.42.07-.59.09-1.97-.33-2.72-.22-2.57-.69.14-.46,1.19-.99,2.8-1.34.12-.03.26-.06.4-.09.91.14,1.69.29,2.39.44.75.15,1.5.31,2.23.46,1.64-.55,3.46-.38,4.65.05,1.21.39,1.93.75,1.93.1-.78-.72-2.51-2.02-4.71-2.27,1.07-.05,1.79.06,1.38-.25-.24-.16-.81-.3-1.67-.31-.81,0-2.09.18-3.2.35l-1.38-.79c-.41-.26-1.27-.53-1.94-.8l-.57.4-.3.24c-1.82-.06-3.57.2-5.13,1.14-1.55.91-2.82,2.35-3.57,4.06-.78,1.7-.91,3.62-.96,5.67l-.19,5.05c0,.38-.01.76,0,1.13.5,3.64,3.01,6.72,6.18,7.64,1.73.59,2.05.63,2.88,1.1.72.43,1.41,1.02,1.99,1.76,1.18,1.46,1.92,3.65,1.68,6.06-.24,2.38-1.57,4.99-4.13,6.57-.65.42-1.38.65-2,1.13-.63.46-1.17,1.1-1.56,1.85-.39.74-.63,1.6-.67,2.49-.02.87.06,1.83.08,2.72-.58-2.45-.94-3.02-1.43-2.77-.5.2-1.01,1.24-1.65.98.27-1.46.63-3.13,1.61-4.73.48-.79,1.11-1.55,1.89-2.18.77-.64,1.71-1.05,2.7-1.56,3.02-1.74,4.13-5.99,2.82-9.4.51,1.58.22,2.26.05,2.37-.19.12-.41-.23-.56-.56.67,2.39-.14,5.31-2.64,6.92-.87.45-1.72.86-2.46,1.44-.74.58-1.38,1.3-1.88,2.12-.2-.44-.91.02-1.6,1.35-.34.66-.64,1.55-.8,2.59-.08.52-.12,1.09-.15,1.69-.02.77-.03,1.56-.05,2.39-.04,1.29.04,2.64.42,4,.13-1.48.53-.95,1.37.42.44.68,1.07,1.56,2,2.38.46.4,1.01.79,1.61,1.1.59.3,1.35.6,1.9.84.35.14.48.23.66.33.18.09.34.22.52.33.34.24.67.52.98.84.61.63,1.13,1.4,1.5,2.21.75,1.63.85,3.45.72,4.78-.39.07-.62-.26-.79-1.23-.24-.95-.25-2.71-1.87-4.9.58,1.28.87,2.27,1.14,3.2.27.93.47,1.84.57,2.8.14,1.84-.33,4.38-3.05,5.59-.87.37-1.86.62-2.82,1.21,1.02-.78,1.99-1.06,2.7-1.44.56-.3.74-.52.9-.87-.26.26-.44.47-.95.76-.84.46-1.78.83-2.6,1.5-.83.66-1.56,1.54-2.08,2.54-.53,1-.82,2.11-.93,3.17-.02.27-.04.53-.06.8,0,.33-.02.66-.03.98-.02.55-.03,1.08-.05,1.58-.18,3.32.86,5.17-.09,3.78-.32-.93-.49-1.9-.53-2.89-.02,2.87,1.59,6.39,4.79,7.88l1.14.55.52.24.27.17c.36.22.69.49,1.02.78.63.61,1.19,1.33,1.57,2.17.79,1.64.93,3.7.36,5.44-.57,1.77-1.69,3.19-3.26,4.08-1.2.58-2.33,1.12-3.17,2-.85.85-1.46,1.88-1.83,2.92-.37,1.04-.49,2.09-.46,3.05.01.24.02.48.03.71l.02.34v.43s.03.16.03.16c.02.17.04.33.06.48.02.23.04.1.06.78.18,2.43,1.08,3.7,1.54,3.93-.06.13-.77-.07-1.51-.59-.74-.51-1.45-1.36-1.66-1.96.66,2.99,2.74,5.52,5.35,6.4.63.2,1.37.36,1.91.49.65.16.91.19,1.35.34.81.26,1.61.68,2.36,1.24,3.05,2.18,4.96,7.17,3.44,12.07-.1-1.49-2.04-.55-3.2-1.11-.59-.23-.98-.69-1.11-1.47-.15-.79,0-1.89-.18-3.62-.1.84-.34,1.7-.82,2.63-.54.92-1.11,1.87-2.58,2.76-1.09.54-2.37,1.14-3.42,2.26,1.05-.92,2.78-1.2,3.94-1.2.59.07.85.23,1.05.44.14.21.16.5-.4.87-.09.05-.2.11-.32.18-3.19.55-4.64,2.4-5.37,3.88-.38.77-.6,1.54-.71,2.39-.02.21-.05.43-.07.65l-.03.34v.18c-.02.05-.02.1-.02.32,0,.48-.01.36-.02.51l-.02.28-.02.29v.15s-.02.57-.02.57c-.04.54-.22,1.57.04,3.17.28,1.55,1.08,3.85,3.37,5.67-.97-.74-1.2-1.34-1.05-1.56.16-.24.7-.13,1.53.06.78.21,2.07.34,3.12.63.83.21,1.77.75,2.49,1.64-.69-.21-1.53,1.82-2.55,1.2,1.23.54,2.39,1.6,3.13,3.06.74,1.46,1.06,3.33.72,5.2.28-1.4-.28-1.59-.87-1.3-.63.29-1.46.9-2.2,1.35.33-.2-.22,1.12-2.06,2.01-1.17.5-2.38,1.01-3.37,1.92-1,.87-1.82,2-2.34,3.2-.54,1.2-.78,2.45-.84,3.58-.02.28-.02.56-.02.83,0,.41,0,.8,0,1.17.01.53.03,1.01.04,1.43.01.18.02.34.03.49l.02-.5c.03-1.81.08-.6.12-2.51.04-.67.13-1.32.27-1.95.28-1.26.81-2.45,1.55-3.46-.79,1.2-1.21,2.53-1.36,3.8-.08.63-.08,1.26-.07,1.87.02.75.04,1.47.06,2.17.05,3.63,1.87,6.14,3.9,7.27.98.57,2.19.8,3.03,1.02.78.19,1.28.3,1.92.62,1.21.58,2.48,1.58,3.37,3.36.87,1.73,1.35,4.4.17,7.3.12-.93-.39-2.11-1.12-2.2-.78-.14-1.37.71-2.87,2.46-.14.64-.31,1.72-1.39,3.03-.65.6-1.35,1.08-1.92,1.8-.58.7-1.04,1.59-1.29,2.58-.62,2.01.32,4.33.76,6.05.41,1.82,1.98,3.38,3.8,3.58.45.08.83.14,1.45.41.65.29,1.3.64,1.91,1.08,1.22.86,2.34,1.98,3.2,3.34.36,1.08.55,2.19.63,3.26,1.45,3.96.94,8.79-1.55,12.42.9-1.88,1.74-4.89,1.2-8.08-.45-3.17-2.37-6.3-4.99-7.85-.64-.4-1.32-.71-2.01-.91-.67-.23-1.69-.41-2.61-.71-1.85-.65-3.35-2.25-4.09-4.14-.19-.47-.33-.96-.44-1.45l-.14-.75-.06-.38s-.02-.25-.03-.43c-.01-.26-.02-.17-.03-.26-.07-.48-.14-.48-.21-1.62-.06-.53-.11-1.05-.11-1.57-.03-2.07.66-4,1.69-5.41-1.45,1.45-1.93,2.6-2.29,3.32-.33.75-.49,1.15-.63,1.71-.07.27-.13.59-.18,1.02-.03.21-.03.46-.05.74v.22c-.01.25-.01.51-.01.77,0,.1,0,.21,0,.32,0,.42,0,.89,0,1.42,0,.46.02.97.08,1.52.12,1.1.42,2.46,1.19,3.92.43,1.1.43,1.29.03.92-.38-.37-1.09-1.38-1.58-2.82-.24-.72-.44-1.52-.53-2.39-.03-.21-.04-.44-.06-.66-.01-.3-.03-.14-.04-1.3l-.04-.8c0-.63-.01-1.25-.02-1.84.01-.41.03-.81.08-1.18.08-.74.23-1.38.37-1.88-.2.66-.35,1.33-.44,2.02-.04.35-.08.69-.1,1.05l-.02.53v.28s0,.91,0,.91c0,.54-.03.39,0,2.17,0,.72.08,1.42.18,2.11.46,2.76,1.92,5.35,4.03,7.07.53.44,1.08.82,1.69,1.13l.91.48.74.34.18.08.05.04.1.07c.07.04.13.08.19.14.13.09.24.21.35.31.45.45.78,1.01.97,1.59.28-.22.67-.03,1.01.54.34.56.56,1.56.43,2.54-.13,2.06-1.88,3.64-1.39,3.99,1.69-1.48,2.43-3.78,2.06-5.81-.31-2.03-1.68-3.66-3.27-4.28.06-.33.47-.6,1.23-.54.73.08,1.86.53,2.85,1.74.98,1.17,1.76,3.2,1.47,5.52-.26,2.29-1.69,4.73-4.1,5.99-1.17.56-2.45,1.01-3.35,2.08-.76.67-1.07.89-1.26.64-.18-.23-.17-.89.05-1.63.37-1.54,1.89-3.05,1.59-3.15-.5.39-1.77,1.26-2.84,2.91-1.1,1.66-1.72,3.94-1.57,6.5.02.72.04,1.43.06,2.13.03.59.06,1.16.14,1.7.14,1.09.47,2.08.86,2.91.78,1.67,1.79,2.6,2.06,2.96-2.3-1.67-3.69-4.5-3.88-7.57-.18,3.09.97,5.8,2.83,7.56,1.68,1.77,4.99,2.43,5.23,2.7.89.45,1.77,1.22,2.29,2.33.53,1.08.69,2.56.13,3.92-.17.89-.99,1.96-1.88,2.5-.44.28-.87.46-1.21.61-.36.16-.5.22-.81.48-.19.12-.3.23-.33.33.19-.04.37-.07.46-.07.34-.03.5,0,.69.05.2.04.4.08.59.12.44.1.85.2,1.23.28.84.22,1.68.45,2.4.84,1.41.69,2.38,2.25,1.14,4.21-.2.13-1.05.84-2.58,1.51-.66.21-1.82.3-2.65,1.25-.42.44-.75,1.02-.93,1.67-.09.33-.12.67-.17,1.02l-.03.26c0,.08-.01.02-.02-.03,0-.03-.01.09-.02.13l-.07.69s-.05.18-.07.39l-.07.57c-.05.38-.04.76,0,1.13.08.74.32,1.44.66,2,.67,1.18,1.68,1.62,2.2,2.06.98.87.92,1.34.41,1.42-.44.1-1.62.05-2.94-.19-1.3-.27-2.45-1.1-3.09-1.48-.6-.41-.97-.2-.24,1.25.23-.01,1.08.71,2.2,1.21,1.11.49,2.53.84,2.95,1.02.94.82.52.94.47,1.2-.04.13.01.29.26.62.25.32.73.82,1.32,1.84.4,0,.9.59,1.17,1.47.28.86.3,1.95.17,2.7-.12.76-.29,1.2-.17,1.01.08-.2.63-1.01.7-3.25.48,2.42-.09,3.93-.75,5.09-.75,1.16-1.56,2.15-3.54,3.16-.97.45-2.09.82-3.08,1.74.67-.3.83-.1.66.39-.16.49-.64,1.32-.94,2.53-.35,1.19-.28,2.77.08,4.31.28,1.5.54,3.15.74,4.6.11.68.16,1.34.29,1.97.14.63.4,1.21.73,1.71-.54-.11-.24,1.63.31,2.28.69.58,1.48.98,2.3,1.14.82.16,1.63.11,2.42.15,1.58.05,3.08.09,4.52.13,2.28.32,4.61-.64,5.69-2.63.49-.96.85-2.13,1.39-2.89.52-.82,1.16-1.55,1.88-2.17,2.84-2.48,7.45-3.12,11.22-.33.23.33.87,1,1.35,1.82.5.83.8,1.67.88,2.28.15.72.08.98-.42.23-.02.02-.07-.05-.14-.14l.1.16c.61,1.06,1.08,2.11,2.15,3.1,1.03.96,2.62,1.97,4.95,2.02.28.05.54.1.77.14,0,.02.52.04.5.06.09.02.17.03.25.05.15.03.29.07.4.09.06.02.11.03.16.04.13.01.25.03.36.04.44.11.41.18.03.24-.24.02-.61.04-1.06.08-.28,0-.58.01-.9.02-.25,0-.52,0-.8,0-1.1-.02-2.34-.37-3.25-.87-.93-.48-1.54-1.04-1.76-1.07-.2-.06-.12.5.99,1.62.22-.08.94.25,2.09.47.57.11,1.25.18,2,.15.46-.02.94-.04,1.45-.06l.48-.04.25-.02h.12s.42-.02.42-.02c1.1-.07,2.27-.2,3.36-.75,1.09-.52,2.09-1.36,2.78-2.43.7-1.03,1-2.44,1.38-3.37.3-.76.71-1.44,1.13-2.02-.31.03-.74.29-1.18.79-.23.24-.44.56-.66.91-.22.43-.45.92-.66,1.49-.4,1.12-1.18,2.25-2.32,3.02-1.13.81-2.55,1.09-3.99,1.12-1.77.08-3.51.33-4.98-.32-1.49-.57-2.63-1.7-3.28-2.83.4-.35,1.06.26,2.4.87.66.3,1.52.57,2.52.57.5,0,1.02-.08,1.55-.2.48-.1.98-.21,1.51-.32.86-.17,1.78-.33,2.58-.97.79-.6,1.43-1.56,1.64-2.69.12-.91.94-2.86,2.11-4.28,1.16-1.48,2.74-2.74,4.6-3.54,3.27-1.28,5.51-.78,6.69-.47,1.21.37,1.51.7,1.49.85-.04.31-1.35.27-.24.48,3.52,1.33,5.71,4.01,6.86,6.27.39.76.63,1.51,1.15,1.98.48.49,1.06.77,1.61.9.56.13,1.09.1,1.57-.01l.35-.07.17-.04s-.3-.03-.1-.04l.46-.07.23-.04s.11-.01.08-.02l-.2-.02c1.42-.24,2.49-1.17,2.89-2.66.1-.39.1-.62.54-1.49.46-.95,1.1-1.89,1.89-2.79,1.59-1.79,3.99-3.45,7.17-3.97,2.31-.18,3.42.33,3.87.61.44.35.24.6-.11.84-.75.47-2.04,1.06-1.22,1.45-4.52.41-7.45,3.07-9.05,5.86-.39.65-.58,1.28-.93,1.84-.35.55-.8,1-1.33,1.33-1.04.7-2.3.79-3.52.7-.16,0-.33,0-.5,0l.32.03c.11,0,.24.02.18.03.98.12,2.04.19,2.98-.25.94-.4,1.76-1.14,2.21-2.12-.18.79-.7,1.78-1.63,2.47-.91.74-2.2.94-3.44.89-.93,0-1.87.07-2.74-.06-.86-.15-1.6-.56-2.11-1.03.35.39.94.83,1.78,1.09.83.26,1.89.21,3.1.29.9.04,1.93.13,2.93-.29.99-.38,1.94-1.14,2.55-2.23.53-1.11.9-2.42,1.64-3.43.7-1.06,1.63-1.99,2.72-2.72,2.17-1.47,5.07-1.97,7.72-1.15,2.66.77,4.94,2.85,6.09,5.46.38.82.57,1.72,1.07,2.46.48.74,1.12,1.36,1.85,1.77,1.5.92,3.11.74,4.78.83,2.05.26,4.11-.4,5.34-1.84.47-.67.73-1.63.95-2.54.26-.9.53-1.61.82-2.21.57-1.17.95-1.81-.03-1.06-.54.7-.99,1.52-1.32,2.31-.35.78-.48,1.65-.95,2.37-1.83,1.32-.19-.55,0-2.58.13-.47.36-1.05.58-1.53.22-.47.4-.84.5-1.04.2-.38-.21-.25-1.26,1.41,1.48-3.54,4.92-6.8,9.56-7.32,2.27-.28,4.79.16,7.06,1.43,2.25,1.23,4.32,3.47,5.42,6.02.17.38.24.85.43,1.27-.15.65-.19,1.35-.1,2.05.04-.12-.2-.43-.44-.94-.28-.49-.4-1.25-.67-1.96-.8-2.04-2.65-4.07-4.02-4.79,1.28.69,2.95,2.54,3.84,4.88.21.55.28,1.21.57,1.81.28.6.71,1.13,1.24,1.52.53.39,1.15.64,1.78.69.31.03.63.04.94.05.26,0,.52,0,.76.01,1.44.13,2.67-.52,3.01-1.51-.98.58-2.17.5-3.17.23-.27-.11-.64-.21-1.13-.32l.71-.11c-.57-.04.93-.08.35-.12.92-.1,1.85-.51,2.36-1.39.67-1-.03-1.36,1.74-4.26,1.4-2.25,3.49-4.13,5.99-5.23,2.5-1.11,5.34-1.36,8.01-.72-2.68-1.13-3.53-.89-4.62-.78-.56.07-1.23.18-2.31.39-1.08.23-2.61.55-4.77,1.62,1.42-.56,1.36-.25.49.51-.85.78-2.49,2.19-3.82,4.37-.17.27-.34.55-.49.84-.14.26-.37.67-.39.75l-.18.42-.09.25c-.11.34-.32.65-.58.86-.53.46-1.18.47-1.57.52.14,0,.52.01.46.01h-.14c-.09.02-.18.03-.26.03-.16.02-.31.04-.43.06.04.01.47.03.44.04l-.06.04s-.05.06-.07.09c-.06.07.08.15.02.25-.91.09.84.21.14.34.02.02.06.05.11.07l-.11-.06c.86-.11-1.14-.23-.12-.32l-.47-.26c-.29-.17-.55-.38-.76-.61-.46-.45-.62-1.07-.75-1.66-1.52-3.52-4.72-7.58-10.21-9.6.16.24,1.19.79.85.82-.17.01-.67-.11-1.82-.32-1.15-.15-2.95-.46-5.67.06-.47.22-1.55.7-2.18,1.07-.31.11-.43.14-.69.25.2-.08.36-.12.57-.19-.41.24-.44.26.21-.07,2.47-.77,4.56-.54,5.34-.3-1.26.24-3.2.6-5.23,1.62-2.03,1-4.11,2.67-5.56,4.87-.36.55-.7,1.11-.99,1.7l-.21.42-.1.27c-.07.18-.14.36-.16.47-.13.53-.31,1.04-.63,1.42-.61.78-1.45,1.08-1.99,1.19-.28-.02-.48-.05-.59-.07.39,0,.17-.02.1-.03-.08-.02-.14-.03-.18-.04-.09-.03-.11-.05-.08-.08.03-.03.1-.06.2-.09.02-.03.47-.06-.07-.09.37-.16.75-.35.14-.59l-.2.06c.81.07-1.16.12-.25.18-.24.06-.48.13-.74.16-.51.07-1.05,0-1.54-.2.07-.25-.12-.66-.22-1.18-.12-.51-.08-1.11-.1-1.5-.2-.78-.59-1.68-.53-1.81.02-.09.13-.05.34.19.1.12.23.29.39.52.08.11.16.24.26.38.06.11.13.22.21.35.19.16.29.49.63.78-.22-.26-.28-.6-.42-.9l-.19-.41-.29-.53c-.19-.36-.4-.7-.62-1.04-.43-.68-.92-1.32-1.45-1.91-1.05-1.2-2.27-2.23-3.61-3.05-3.35-2.48-8.64-3.48-13.19-1.72-2.27.82-4.27,2.26-5.78,3.92-.76.83-1.39,1.73-1.91,2.63-.27.45-.48.91-.69,1.35-.06.19-.15.42-.17.55-.16.36-.35.85-.7,1.17-.33.33-.72.44-.89.52.33.01.64.02.48.02-.04,0-.07,0-.07,0,0,0,.02,0,.06-.02,0,0,.11-.01.01-.02-.13,0-.3-.02-.48-.03.05-.03.13-.1.24-.18l-.26.04c1.28.02-1.11.03.21.05l-.4.05c-.27.02-.55-.02-.8-.13-.55-.2-.85-.73-1.11-1.27-.13-.28-.39-.73-.64-1.14-.24-.42-.53-.8-.8-1.2-.58-.76-1.21-1.48-1.9-2.12v-.32c-2.38-2.34-5.58-3.83-8.87-4.08-3.26-.28-6.67.67-9.37,2.67-1.36.99-2.56,2.22-3.53,3.63-.49.7-.92,1.47-1.28,2.23l-.22.57-.11.37c-.27,1.03-1.33,1.62-2.33,1.5,1,0-1.04,0-.02,0h-.51c-.34-.02-.67-.13-.97-.32-.63-.35-.89-1.11-1.06-1.79-1.42-3.41-4.41-6.71-8.12-8.38-3.39-1.13-7.14-1.07-10.91.65-1.86.89-3.69,2.22-5.27,4.1-.38.48-.77.98-1.12,1.53-.18.27-.35.55-.51.84-.15.26-.37.67-.4.75-.17.34-.24.51-.31.66-.07.17-.16.33-.28.47-.31-.06-.62-.18-.9-.35-.22.27-.64.36-1.08.3l-.33-.03c-.36-.01-.72-.02-1.08-.04l-.55-.02h-.27s-.07-.02-.07-.02l-.29-.04c-.38-.05-.75-.1-1.02-.35-.58-.49-.51-1.18-.71-1.48-.04-.1-.1-.16-.16-.22l.14-.14s.04-.03.07-.08l.06-.27c.08-.37.15-.77.22-1.21.03-.18.06-.53.1-.58l.09-.14c.05-.08.1-.17.15-.25.18-.34.52-.57.89-.63.25-.11.68-.36,1.12-.63.43-.25.83-.56,1.23-.85.8-.61,1.56-1.31,2.26-2.08,1.39-1.55,2.54-3.4,3.33-5.44,1.57-4.11,1.59-8.82.11-12.88-1.45-4.08-4.26-7.3-7.39-9.2l-.58-.35-.25-.13-.22-.11-.07-.03c-.09-.03-.17-.07-.24-.12-.14-.11-.23-.26-.26-.41-.34.17-.69.32-1.04.46-.05-.15-.08-.31-.09-.47v-.24s0-.12,0-.12v-.06s0,.56,0,.56v-.79c0,.73-.01.36-.02.33,0-.16-.02-.33,0-.49.07-.69.58-1.21,1.21-1.48,4.23-2.22,8.02-7.59,7.96-13.84-.32.27-.63.53-.98.76.04-2.66-.46-5.72-2-8.59-.77-1.42-1.76-2.8-3.02-3.97-.63-.58-1.31-1.14-2.05-1.61-.79-.51-.97-.58-1.28-.75-.58-.27-1.04-.83-1.24-1.49-.23-.65-.08-1.42-.04-2.01,0-.35.01.67.01.34v-.12s.03-.25.03-.25c.01-.16.03-.33.07-.48.08-.32.21-.62.4-.88.36-.56.99-.77,1.56-1,.31-.13.82-.46,1.25-.73.43-.31.87-.6,1.27-.95-.15.24-.46.55-.89.9-.21.18-.46.35-.74.53-.29.2-.57.36-.79.47-.43.21-1.08.33-1.48.74.49-.37,1.11-.4,1.6-.5.37-.13,1.07-.52,1.58-.83.55-.34,1.07-.73,1.57-1.15,1-.85,1.89-1.85,2.64-2.97,1.51-2.23,2.41-4.95,2.59-7.71.43-5.53-2.33-11.12-6.51-14.03-2.76-1.9-2.82-1.21-3.59-1.87-.63-.49-.91-1.33-.87-2.13,0,1.03-.02-1.04-.02-.15v-.57c.01-.4.13-.78.34-1.1.38-.69,1.18-.92,1.84-.98l.03-.03c.33-.19.9-.6,1.33-.91.44-.35.86-.68,1.24-1.04.78-.7,1.44-1.44,2.03-2.17,1.17-1.49,2.04-3.02,2.68-4.65-.14.45-.27.85-.38,1.2.2-.48.48-1.2.66-1.97.73-2.12,1.06-4.51.76-7.1.18,2.23-.11,4.28-.52,6.01.37-1.93.4-4.44-.33-7.06-.7-2.61-2.25-5.19-4.3-7.06-.32-.82-.74-1.62-1.24-2.4-.39-.28-.72-.48-1.15-.72-.94-.65-.83-.55-1.05-.62-.15-.02-.28.02-.37.12-.2.22-.25.67.02,1.19-1-.11-1.89-.69-2.37-1.35.22-.62.36-1.18.42-1.77v.4s.01-.14.01-.14v-.28s0-.29,0-.29c0-.03,0-.41,0,.08,0,.23,0,.05,0,.07v-.07s0-.15,0-.15l-.02-.31c-.02-.41.03-.86.19-1.26.16-.4.44-.76.79-.97.36-.22.8-.25,1.17-.31.63-.17,1.55-.57,2.27-.83.62-.75,2.26-2.28,3.55-4.83,1.32-2.51,2.05-6.09,1.47-9.45-.52-3.4-2.34-6.37-4.26-8.02-1.9-1.68-3.86-2.24-4.26-1.92,0-.14-.15-.29-.15-.36.03-.04.09-.1.97.37-.66-.43-1.04-.58-1.48-.82-.42-.25-.78-.62-1.05-1.04-.58-.84-.69-1.87-.7-2.82v.2s0-.05,0-.07v-.23s-.04-.46-.04-.46c-.02.18-.04-.16-.06-.35-.06-.41-.09-.84-.07-1.26.52-.23,1.08-.35,1.64-.34.16-.87.77-1.4,1.45-1.98,1.66-1.2,3.16-2.99,4.03-4.88,2.26-2.69,2.78-5.47,3.18-6.2.18-.38.38-.31.49.39.12.7.2,2.04-.28,4.09,1.34-4.9.29-8.43-.69-10.78-1.07-2.37-2.24-3.77-3.45-4.92-.61-.58-1.26-1.07-1.98-1.53-.35-.22-.78-.45-1.14-.63-.27-.1-.58-.24-.81-.28-.97-.16-2.53-.87-3.03-3,.28.07.56.12.85.15-.04-.33-.05-.68-.09-1.06-.02.55-.05-1-.08-.45-.03-.28-.06-.57-.1-.86-.05-.59.04-1.21.26-1.75.22-.55.58-1.02,1.01-1.34.43-.33.93-.45,1.32-.67.88-.46,1.59-.83,2.15-1.12,1.23-.73,2.8-2.11,4.01-4.37,1.2-2.24,1.93-5.43,1.31-8.88-.57-3.45-2.64-7.07-6-9.31-.99-.64-1.36-.79-1.76-.96-.41-.16-.78-.43-1.08-.78-.63-.7-.83-1.72-.76-2.69v-.99c.02-.47.14-.93.35-1.34.21-.41.52-.77.89-1.03.37-.27.83-.36,1.23-.58,3.01-1.48,5.65-4.53,6.77-8.07,1.16-3.55.95-7.55-.58-10.94-.74-1.7-1.81-3.2-3.06-4.47-.63-.63-1.31-1.2-2.03-1.7-.83-.55-1.23-.77-1.47-.89-1.21-.46-1.75-1.91-1.49-3.03-.72.86-.92.77-.89-.07,0,.56,0,.06.02-.01,0-.16.02-.33.03-.51,0-.02,0-.16,0,.01,0,.1,0,.27.01.19l.02-.16.05-.33c.06-.44.24-.91.53-1.3.28-.39.68-.7,1.07-.89.4-.2.8-.25,1.08-.44,1.13-.62,2.01-1.53,1.93-1.97.92-.31,2.19-1.35,2.8-1.81.56-.49.81-.09-1.01,2.16,3.16-3.23,4.54-7.34,4.67-10.98.15-3.66-.88-7.03-2.57-9.64-.84-1.31-1.86-2.45-2.99-3.39-.57-.47-1.16-.9-1.79-1.26l-.46-.27-.24-.11c-.17-.08-.32-.14-.39-.15-.76-.14-1.59-.61-2.13-1.51.26-.43.48-.16.72.02.25.19.5.32.57.03-.16-.14-.4-.54-.42-1.01-.02-.18-.02-.23,0-.51.02-.36.05-.69.12-.95.12-.47.22-.34.31.1.04.22.09.53.13.87.04.24.08.26.12.4.06.16.11.31.19.42-.01-.17-.03-.32-.04-.44l-.03-.27c-.01-.33-.03-.64-.04-.95-.02-.31-.03-.62-.05-.91v-.21s-.03-.06-.03-.06l-.03-.12c-.07-.32-.17-.64-.27-.96-.19-.65-.19-1.26-.2-1.81.02-1.09-.08-2.01-.25-2.9.75-.05,1.41.17,1.97.23.37.05.73.09,1.08.14.51.03.99.05,1.46.08.55.02.71.02,1.02.01.29-.02.57-.03.85-.05,1.11-.05,2.36.23,3.39,1.22.08.53.09,1.14.14,1.55.08.52.29,1.08.21,1.19-.03.16-.37-.16-.79-.87-.31-.32-.41-1.12-1.26-1.85.37.29.71,1.03,1.01,1.98.96,2.25,3.14,5.1,6.14,6.63,2.99,1.63,6.68,1.91,9.72.91,6.32-1.92,8.39-8.38,7.59-7.96.3-.33.59-1.3,1.36-1.91.72-.65,1.65-.84,2-.89.22,0,.44.01.53.01.26,0,.51.01.75.02.33,0,.64.01.92.07.58.12,1.06.38,1.44.7.81.63,1.01,1.54,1.33,2.32.61,1.35,1.6,2.88,3.04,4.21,1.45,1.33,3.49,2.67,6.38,3.17-1.08-.28-2.12-.7-3.08-1.25,2.43.21,4.63.56,7.47.12,1.4-.24,2.94-.74,4.45-1.76,1.48-.97,3.01-2.65,3.88-4.65l.06.26c.52-.87.62-1.44,1.08-1.95.4-.48.88-.78,1.32-.97.91-.38,1.68-.25,2.24-.24-.36,0,0,0,.07,0,.12,0,.25,0,.36,0,.09,0,.17,0,.24,0,.28,0,.52-.01.75-.02.45.01.81.08,1.19.21.71.25,1.65.86,2.14,2.88.65,1.58,2.13,4.37,5.49,6.46-.22-.5-.39-1.02-.54-1.52.7-.23,1.87.33,3.66.8,1.77.46,4.25.79,6.96-.08,1.34-.42,2.69-1.17,3.9-2.2.6-.52,1.17-1.11,1.67-1.78.52-.66.96-1.47,1.19-1.9.35-.9.87-1.75,1.68-2.22.77-.53,1.67-.61,2.52-.68h-.14s.13-.03.13-.03c-.83-.23-1.79-.41-2.68-.12.62-.56,1.61-.65,2.61-.47.81.18,2.1.29,2.88,1.22.4.42.68.98.82,1.55.15.58.09,1.2.13,1.69.46,1.84,1.57,3.86,2.82,5.32,1.29,1.5,2.83,2.6,4.29,3.23.81.41.12.27-1.07-.19-1.19-.46-2.77-1.44-3.78-2.27,2.02,2.01,4.03,3.01,5.59,3.55,1.58.54,2.74.66,3.52.67,1.58,0,1.74-.32,1.73-.57-.02-.29-.18-.58.59-.93.72-.41,2.53-.62,5.67-2.6,1.33-.47.86.42,1.08.76.11.15.44.19,1.27-.32.81-.51,2.21-1.54,3.77-4,.16-.24.35-.53.55-.87.2-.36.19-.37.3-.61.09-.22.09-.4.19-.65.17-.48.65-1,1.39-1.11-.22-.07-.1-.14.23-.2.29-.06.61-.05.92.04.66.16,1.06.76,1.37,1.4.11.24.3.58.52.93.2.35.42.68.65,1,.45.65.95,1.26,1.48,1.82,1.06,1.13,2.24,2.07,3.5,2.82,2.51,1.5,5.24,2.18,7.67,2.29-1.6-.2-3.08-.76-3.28-1.09-.1-.17.09-.22.73-.27.63-.03,1.71-.02,3.33-.29,3.21-.37,7.17-2.14,9.78-5.86.31-.41.66-1.04.86-1.35l.39-.71c.18-.38.45-.72.78-.96.66-.51,1.52-.55,2.24-.44-.91,0,1.16.03.12.03h.57c.37.04.74.14,1.07.29.69.29,1.15.82,1.61,1.3.02.13.04.24.02.29.19.7.37,1.17.27,1.23,1.13,1.79,3.03,3.88,5.64,5.22,2.59,1.37,5.82,1.85,8.7,1.18,2.91-.63,5.36-2.36,6.87-4.22.77-.93,1.3-1.89,1.68-2.74.19-.45.34-.84.36-1.05.07-.27.09-.48.09-.66.82-.36,1.95-1.51,3.7-1.36l.31.02h.16c.1,0-.12,0-.23,0-.15,0,.05,0,.05,0h.6s.15.01.15.01h-.32s.17,0,.17,0c.44,0,.91,0,1.37.17.45.16.89.44,1.23.84.36.39.5.91.78,1.38,1.39,2.8,3.98,5.19,6.65,6.31,2.71,1.19,5.48,1.26,7.7.82,4.53-.95,6.73-3.55,7.37-2.75.72-.77,1.37-1.6,1.92-2.52.15-.22.26-.47.39-.7.13-.24.26-.5.3-.59l.18-.41.1-.28c.21-.78.77-1.43,1.49-1.73.36-.15.74-.21,1.13-.2h.29s.09,0-.11,0h-.19s.06,0,.06,0h.28s.46,0,.46,0c-.39,0-.23,0-.19,0h.15c.78-.07,1.59.18,2.17.76-.13.03-.27.08-.39.12.55.47.71,1.16.95,1.7,1.24,2.65,3.27,4.73,5.14,5.88,1.92,1.19,3.78,1.71,5.4,1.85,3.26.24,5.58-.74,7.45-2.02,3.05-1.48,1.08.01.88.35,2.03-1.05,3.6-2.53,4.75-4.13.56-.75,1.11-1.81,1.25-2.12.18-.38.26-.67.45-.95.71-1.13,1.91-1.34,2.82-1.27-.76,0,1.03,0,.21-.02l.62-.03c.41,0,.82.07,1.21.23.39.16.76.41,1.07.75.32.33.49.79.8,1.24,1.4,2.53,4.16,5.36,8.17,6.3.47.54,1,1.05,1.58,1.53.79.02,2.08.17,3.79-.02,1.7-.19,3.84-.76,5.94-2.18,1.05-.71,2.07-1.62,2.98-2.75.46-.56.88-1.18,1.27-1.85.38-.66.49-.9.62-1.19.43-1.2,1.81-1.84,3.07-1.57-.86,0,1,.03.12.04l.56.04c.37.03.74.16,1.07.36.71.38,1.03,1.18,1.31,1.92.93,2.03,2.62,4.11,4.5,5.45,1.91,1.38,4.13,2.22,6.31,2.41-.23.07-.74.3-2.55-.13,3.43,1.02,7.31.79,10.7-1,1.68-.89,3.21-2.13,4.46-3.66.63-.76,1.17-1.61,1.65-2.49.33-.63.42-.88.56-1.18.31-.6.89-1.01,1.51-1.14.31-.07.63-.05.94,0-.18.03.61.07.4.1.57.03,1.12.27,1.5.68.41.4.52.99.68,1.48.09.25.27.61.47.98.18.37.39.71.61,1.05.43.68.91,1.32,1.42,1.9,1.03,1.17,2.2,2.15,3.43,2.9,2.47,1.53,5.2,2.09,7.54,1.97,2.36-.12,4.41-.89,5.88-1.91,1.48-1.01,2.42-2.22,2.88-3.28.94-1.01,1.72-2.16,2.32-3.4.63-1.27.51-1.65.82-2.38.53-1.31,1.88-2.04,3.24-2.04-1.37-.17-2.37.23-2.96.66-.6.43-.87.8-1.05.94-.32.32-.38-.26-.13-1.04.24-.79.96-1.59,1.31-1.98.37-.34.16-.72-1.26-.02.59-.48,1.35-.82,2.17-.91.85-.08,1.61.03,2.45.07.74.07,1.54.08,2.18.32.65.23,1.18.61,1.56.99.75.79.9,1.53.77,1.59-.16.12-.53-.56-1.95-1.22-.26-.2-.55-.37-.85-.49-.63.39-.22.64.5,1.17.36.27.8.65,1.17,1.2.41.53.55,1.28.83,1.98.67,1.58,1.91,3.31,3.33,4.54,1.42,1.27,3.08,2.13,4.59,2.62,3.05.99,5.35.56,5.25,1.04,4.01-.58,7.63-3.2,9.6-6.87.51-.94.56-1.2.74-1.65.17-.42.44-.78.78-1.07.67-.6,1.58-.72,2.43-.64l.97.04c.44.03.88.18,1.26.41.38.24.71.57.95.97.24.4.33.87.52,1.28,1.41,3.18,4.25,6.01,7.53,7.28,3.3,1.33,7.04,1.25,10.26-.24,1.61-.74,3.08-1.79,4.3-3.12.62-.65,1.16-1.39,1.65-2.15.23-.36.49-.84.64-1.14.1-.21.25-.5.29-.62.35-1.35,1.76-2.08,3-1.84l2.74.08c.57.05,1.14,0,1.69.14,1.11.29,1.88,1.5,1.78,2.67-.02,1.51-.04,3.02-.06,4.53-.04.56-.27,1.09-.63,1.49-.35.43-.89.56-1.35.78-1.24.62-2.7,1.68-3.77,2.82,1.45-.78,3.11-1.31,4.47-1.4-3.78,1.84-6.7,6.05-7.12,10.64-.34,1.77-.45,3.07-.75,2.6-.13-.24-.31-.93-.32-2.24.02-1.3.24-3.27,1.39-5.66-.8,1.13-1.48,2.91-1.66,4.89-.2,1.97.08,4.1.75,5.89,1.33,3.67,3.82,5.5,3.99,5.45.76.91,1.5,1.62,2.17,2.14.65.53,1.33.96,1.51,1.09.52.36.59.47.6.59,0,.11-.17.15-.41.16-.26,0-.47.05-1.28-.33-1.72-.76-3.57-2.32-4.55-3.5-.99-1.17-1.37-1.71-.48-.29.88,1.23,1.92,2.32,3.09,3.23.59.45,1.2.86,1.84,1.23.5.28.73.37.9.43-.08-.09-.35-.3-.62-.51.73.26.94.15,1.34.23.35.06.67.19.95.37.57.37,1.03,1.03,1.05,2.21v-.32s.01.13.01.13v.27s.02.28.02.28v.15c0,.06,0,.13,0-.06v-.17s0,.04,0,.04v.09s.01.18.01.18c0,.12,0,.25.01.38,0,.52-.13,1.11-.48,1.65-.93,1.04-1.66.8-1.89.77-.28-.09-.32-.26-.54-.26-.14.03-.34.09-.79.36-.01-.05-.27.02-.88.44-.61.41-1.59,1.16-2.78,2.66-2.02,2.38-3.29,5.49-3.54,8.71-.27,3.2.45,6.54,2.06,9.34-.94-2.45-1.27-5.05-.95-7.44.36,4.01,2.58,7.66,4.09,9.04.74.72,1.21,1.01,1.16.77-.04-.23-.66-1-1.49-2.69.32.71.85,1.54,1.61,2.39.38.42.83.84,1.34,1.25.26.19.52.38.79.57.19.12.37.24.57.36.64.32,1.33.76,1.73,1.54.45.75.53,1.7.44,2.63-.01-.61-.02.93-.03.38l-.03.68c-.02.48-.15.96-.38,1.39-.22.43-.55.81-.95,1.09-.39.29-.88.38-1.31.61-1.79.88-3.61,2.47-4.85,4.29-1.26,1.86-2.09,4.05-2.35,6.27-.59,4.46,1.06,8.92,3.65,11.66.64.69,1.32,1.32,2.03,1.83.7.53,1.53.98,1.84,1.14.7.27,1.28.57,1.64,1.06.76.96.68,1.98.59,2.42l.06.31c.04-.69.09,1.02.12.33l.1.75c.06.51-.01,1.04-.19,1.52-.18.48-.48.92-.87,1.25-.39.34-.89.48-1.34.76-2.53,1.36-4.85,3.88-6.02,7.01-1.19,3.14-1.29,6.92.15,10.42-.51-1.55-.31-2.87.12-2.47.23.19.52.78,1.06,1.85.56,1.04,1.39,2.6,3.13,4.28-1.34-.16-.89,1.31,1.38,2.99.4.3.74.5,1.08.69.35.2.68.5.96.88.58.75.76,1.84.62,2.86-.02-.65-.03,1.16-.05.4-.02.26-.03.51-.07.76-.08.49-.28.95-.58,1.3-.57.77-1.54.87-2.2.88-.68.21-1.49.59-2.06.84.98-.51,1.3-.48,1.08-.24-.21.25-.91.81-1.81,1.69-1.8,1.71-4.09,5.32-4.35,9.3-.43,3.95,1.15,7.61,2.28,9.06.57.75.96,1.06,1.01.84.05-.21-.28-.93-.74-2.4.94,2.03,1.71,2.91,1.99,3.44.31.51.23.61.07.69-.16.07-.38.1-.26.46.12.35.54,1.12,2.02,2.3l.69.38.4.17c.28.12.4.13.62.2.39.11.75.34,1.04.64.62.61.83,1.54.79,2.44,0-.77.01,1.03.01.24v.67c0,.45-.11.9-.32,1.29-.2.4-.5.74-.86.99-.36.26-.81.34-1.19.53-2.82,1.36-5.45,4.12-6.74,7.47-1.34,3.38-1.44,7.34-.13,10.93.64,1.79,1.64,3.45,2.88,4.88.63.71,1.32,1.37,2.08,1.93.37.29.76.56,1.17.81l.3.19.16.09.33.18c1.23.34,1.97,1.71,1.79,2.99v-.41s0,.06,0,.08v.24s0,.49,0,.49c0,.29,0-.35,0-.35v.11s0,.22,0,.22c0,.3-.02.6-.1.88-.16.57-.52,1.08-1,1.39.06.2.55.19.86.28.27.05.57.53-.59,1.29-.17.02-.32.05-.48.08-4.01,1.3-7.73,5.33-8.76,10.44-.15,3.12.73,4.49,1.57,6.23.47.86.97,1.84,1.74,3.12.79,1.26,1.81,2.88,3.76,4.66-.53-.55-1.08-1.3-1.15-1.6-.05-.32.28-.09,1.75.9.97.68,1.48.95,1.88,1.14.44.2.83.52,1.14.91.63.8.77,1.88.66,2.86-.01-.65-.01,1.04-.03.35l-.03.72c-.03.48-.17.94-.4,1.35-.23.41-.55.76-.93,1.01-.38.26-.84.34-1.24.55-2.91,1.42-5.51,4.32-6.64,7.71-1.21,3.41-1.07,7.29.34,10.65.71,1.67,1.71,3.21,2.95,4.48.62.64,1.3,1.22,2.02,1.72.35.26.74.47,1.11.7.23.12.5.26.67.33,1.48.35,2.42,1.99,2.24,3.54l.02,1.04c0,.48-.12.96-.33,1.38-.21.42-.52.79-.89,1.07-.37.28-.83.38-1.23.61-2.88,1.47-5.4,4.37-6.48,7.72-1.16,3.36-.99,7.17.39,10.45.7,1.63,1.67,3.14,2.89,4.39.61.63,1.27,1.19,1.97,1.69.34.25.73.47,1.08.69.22.11.5.27.66.33.72.24,1.39.72,1.76,1.42.42.69.46,1.52.41,2.3l-.05,3.03c-.04.71,0,1.42-.14,2.09-.32,1.36-1.66,2.29-2.96,2.1l-.95-.08-.46-.04-.79-.05c-.52-.03-1.35-.07-1.51-.1l-.86-.11c-.56-.1-1.07-.43-1.43-.88-.38-.45-.46-1.08-.6-1.61-.7-1.79-2.02-3.79-3.53-5.26,1.45,1.54,1.99,2.67,2.22,3.17.21.52.09.47-.26.04-.69-.85-2.56-3.11-5.25-4.47,3.2,2.15-.51.75-.08,1.62-3.02-2.08-6.95-2.74-10.57-1.62-1.81.54-3.51,1.52-4.97,2.84-.72.67-1.4,1.4-1.97,2.23-.3.39-.56.86-.81,1.26l-.37.65c.12.44.09,1.18-.42,1.79-.49.64-1.43.96-2.4.88.61,0-1.06,0-.38,0h-.75c-.5-.05-.98-.22-1.39-.49-.89-.52-1.18-1.5-1.55-2.17-.89-1.71-2.06-2.82-2.6-2.95.88.91,1.69,2.1,2.22,3.15.27.47.42,1,.74,1.42-.67-.57-.98-.83-1.25-.56-.22.23-.39.99-.19,2.01.2,1.01.92,2.21,2.02,2.93.55.37,1.16.6,1.77.79l.46.15c.06.02.17.05.31.07l.22.07.41.15c.15.05.2.1.53.15,1.57.57,2.8.75,2.66,1.31,2.04-.86,4.07-2.64,4.98-5.32l.4-.88c.13-.26.24-.39.36-.6.26-.36.55-.71.87-1.02.65-.62,1.43-1.12,2.27-1.44,1.68-.64,3.62-.56,5.25.16,1.66.74,3,1.91,4.05,3.75.57,1.23,1.12,2.42,2.03,3.32.89.91,2.01,1.56,3.2,1.88,1.73.82.92.75-.17.53-1.08-.25-2.29-.97-1.49-.12,1.14.46,2.38.76,3.73.77,1.3,0,3.02-.16,4-.19.3,0,.61-.02.92-.03.42,0,.86,0,1.31-.01.9,0,1.84,0,2.8-.12,1.9-.21,4.05-1.24,5.53-3.36-.15.37-.33.74-.54,1.08.84-.96,1.41-2.12,1.75-3.29.32-1.18.39-2.38.39-3.6,0-2.12-.02-4.08-.02-5.87.04-2.05-.41-4.02-1.43-5.63-1-1.63-2.49-2.74-4.12-3.44-.32-.16-.76-.36-.95-.48-.17-.12-.35-.22-.5-.35-.33-.24-.62-.53-.89-.83-.55-.6-.96-1.31-1.25-2.06-1.16-2.99-.1-6.85,3.26-8.28,1.03-.43,2.06-.83,2.96-1.52.91-.67,1.72-1.55,2.34-2.59.63-1.04,1.08-2.23,1.3-3.5.1-.64.16-1.29.18-1.98,0-.85.02-1.72.03-2.59.03-1.9-.3-3.85-1.25-5.61.16.99.19,1.98.07,2.94-.4-1.85-1.2-3.18-1.99-4.15-.8-.97-1.6-1.58-2.33-2.03-.77-.46-1.42-.82-1.83-1.1-.23-.22-.45-.44-.68-.71-.88-.27-.97-.11-.56.43.2.26.56.56.99.84.73.41,2.08.91,3.06,1.69,2.12,1.56,3.13,4.27,3.18,5.78.04,1.56-.18,1.89-.73.2.13-1.55-.55-4.28-2.98-6.09-.57-.43-1.35-.8-1.98-1.15-.76-.38-.88-.52-1.25-.81-.65-.53-1.23-1.22-1.69-2.01-.92-1.57-1.24-3.69-.7-5.54.54-1.87,1.75-3.34,3.43-4.08,1.35-.56,2.61-1.12,3.58-2.04.99-.89,1.71-1.98,2.21-3.07.5-1.1.75-2.21.88-3.23.03-.26.06-.51.09-.76.01-.18.03-.09.03-.64v-.3s.01-.06.01-.06l.02-.12c.02-.16.05-.31.07-.45.02-.23.05,0,.07-1,.1-1.06.18-1.91.24-2.55-.69-3.15-1.86-4.1-2.13-4.39-.36-.27-.17.17-.04.62.14.45.23.91-.07.61-.34-.21-.91-1.5-3.35-2.93l-1.17-.93-.51-.41c-.18-.14-.15-.22-.24-.32-.46.05-.93.02-1.42-.06-1.19-1.24-1.47-2.61-1.4-3.44.07-.85.39-1.26.65-1.32-.06.69.5,1.78.88,2.3-.36-1.12-.62-2.58-.26-3.97.16-.69.47-1.34.87-1.89.19-.29.43-.51.65-.74.13-.09.23-.21.36-.29.12-.08.21-.17.49-.3,3.19-1.24,4.69-3.35,5.33-4.24-1.31,1.99-3.26,3.24-5.45,4.01-.26.1-.39.17-.5.22-.13.05-.24.12-.36.19-.24.14-.47.3-.68.48.18-.21.38-.41.6-.58.11-.09.22-.18.34-.25.11-.07.22-.16.49-.28,2.26-.89,4.24-2.36,5.42-4.61.59-1.1.99-2.32,1.15-3.59.09-.63.11-1.28.11-1.94l-.02-2.51c.12-4.05-2.15-8.16-5.83-9.71l-1.19-.56c-.32-.15-.35-.2-.53-.31-.28-.21-.58-.42-.82-.69-.52-.51-.92-1.13-1.22-1.8-1.2-2.75-.17-6.24,2.63-7.61,1.15-.5,2.24-1.01,3.16-1.8.92-.78,1.7-1.75,2.26-2.84.57-1.09.93-2.29,1.06-3.52.08-.61.09-1.24.09-1.87l-.04-2.38c-.02-2.08-.5-4.08-1.57-5.76-1.04-1.68-2.58-2.94-4.32-3.63l-1.13-.49c-.28-.13-.36-.18-.55-.28-.31-.2-.63-.4-.92-.65-.58-.49-1.09-1.07-1.47-1.74,0,.38.05.76.12,1.16-1.09-1.39-1.46-2.9-1.5-4.15-.03-1.27.26-2.27.64-3.06.83-1.6,1.78-2.44,3.45-3.18,2.87-.9,7-3.53,6.18-11.22-.02-1.34-.16-2.82-.81-4.25.15.26.29.53.41.81-.48-1.16-1.22-2.33-2.24-3.29-.98-.99-2.41-1.59-3.67-2.1l-.45-.19-.26-.14c-.18-.09-.34-.19-.51-.31-.34-.22-.65-.49-.96-.78-.6-.59-1.09-1.33-1.44-2.13,1,1.28.38-.19.35-1.44-.02-.64.05-1.22.2-1.42.15-.2.25,0,.54.78-.44-1.53-.23-2.85.07-3.75.3-.93.7-1.53,1-1.97.68-.88.81-1.12,1.4-1.73.57-.44,1.31-.85,2.27-1.76.91-.91,2.15-2.5,2.38-5.19.22-.5.39-1.04.54-1.59l.1-.43c.03-.14.07-.21.1-.73l.19-.69c-.01-.08-.03-.15-.04-.22-.02-.21-.03-.39-.04-.53-.35-2.39-.93-3.67-2.27-5.27-.69-.77-1.64-1.57-3.12-2.09-.77-.3-1.45-.6-1.98-.94-.59-.36-1.2-.87-1.79-1.55,1.13,1.04,1.62,1.09,1.66.95.06-.17-.27-.62-.49-1.09-.23-.47-.38-.94-.21-1.03.16-.11.59.23,1.72.85-2.05-2.12-2.44-4.71-2.09-6.76.4-2.08,1.46-3.65,3.06-4.64,1.18-.59,2.26-1.11,3.12-1.96.87-.81,1.53-1.79,2-2.82.47-1.04.73-2.13.83-3.2l.06-.81.03-1c.02-.61.03-1.22.05-1.83.16-2.54-.31-5.04-1.57-7.24-1.34-1.1-2.21-1.23-2.44-1.19-.26.08.05.4.62,1.01.56.61,1.37,1.57,1.95,2.89.62,1.31.86,2.95.83,4.61,0,.85,0,1.7-.01,2.54-.02.72-.08,1.4-.21,2.04-.26,1.28-.81,2.33-1.32,3.05-1.07,1.38-1.67,1.71-.69.63-.69.57-1.04.63-1.04.47,0-.16.32-.57.73-1.27.41-.69.88-1.71,1.09-2.96.11-.62.12-1.3.09-2-.04-.75-.07-1.52-.11-2.31-.05-1.36-.21-2.75-.83-3.94-.58-1.19-1.47-2.12-2.36-2.7-.7-.43-1.5-.75-2.1-1.17-.55-.39-.94-.79-1.32-1.3-.74-.98-1.26-2.2-1.48-3.57-.22-1.36-.16-2.92.39-4.5.58-1.56,1.54-3.16,3.63-4.25-.93.5-.76.62-1.43,1.2.54-.36.87-.58,1.59-.94,2.17-.83,4.05-2.24,5.15-4.42.55-1.06.92-2.25,1.06-3.49.07-.62.09-1.25.09-1.9,0-.8-.01-1.61-.02-2.43.04-2.39-.51-4.92-2.05-7.11-1.17-.92-2.49-1.61-3.89-2.12l-.88-.36c-.3-.12-.32-.17-.49-.25-.26-.16-.52-.34-.74-.53-.91-.77-1.45-1.55-2.35-1.51.41.72.93,1.37,1.54,1.91.3.27.62.51.96.73.16.11.35.19.51.3l.87.39c2.87.95,5.14,3.68,5.55,6.86-.42-2.65-2.17-5.01-4.54-5.97-.58-.24-1.24-.45-1.75-.63-.31-.1-.47-.17-.64-.25-.18-.07-.35-.15-.53-.25-.7-.36-1.38-.86-1.99-1.52-1.22-1.29-2.15-3.23-2.13-5.52-.03-2.25,1.01-4.79,3.14-6.34-.2.4-.76,1.22-1.17,2.26-.43,1.02-.64,2.25-.65,3.22.76-2.26,1.59-4.6,4.05-5.62.46-.17.94-.34,1.41-.52-.05.27-.41.65-1.13,1.1-.63.56-1.23,1.11-1.94,2.06-.66.93-1.22,2.19-1.31,3.61-.11,1.44.31,2.93,1.13,4.03.4.55.89,1,1.4,1.32.26.16.52.29.78.37.22.08.43.15.64.22.27.09.55.18.9.31-1.61-.93-1.73-1.06-2.48-1.7-.63-.57-1.21-1.33-1.54-2.08-.34-.75-.43-1.46-.35-1.79.08-.34.29-.26.76.25-.68-.8-.83-2.03-.37-3.15.49-1.15,1.34-2.06,2.77-2.68,1.32-.54,2.63-1.11,3.7-2.16,1.07-1.02,1.92-2.37,2.38-3.89.49-1.52.47-3.2.34-4.89-.11-1.63-.25-2.02-.46-4.03.33.29.66.61.99.96-.11-1.28-.15-3.29-.72-5.22-.58-1.96-1.9-3.94-3.55-5.24,2.26,1.22,4.02,3.52,4.79,6.19-.79-3.91-3.52-7.25-6.93-8.58-1.67-.68-3.55-.82-5.49-.89-2.06-.11-2.03-.21-4.53-.32-2.42-.16-4.82.47-6.77,1.96-.97.73-1.82,1.65-2.45,2.72-.64,1.03-1.11,2.4-1.38,3.24.38-.99.99-2.53,1.65-3.46.68-1,1.45-1.77,2.2-2.35,1.51-1.15,2.88-1.6,3.9-1.8,2.06-.35,2.79-.02,2.88.1.16.34-1.8.82.16,1.16.41.11,1.49.21,2.16.31-.77.04-1.5.07-2.11.1-3.1.02-5.43,1.4-6.81,3.05-.71.82-1.18,1.69-1.54,2.54-.39.86-.68,1.52-.86,1.69-.87,1.08-1.8,1.38-2.67,1.48-.88.08-1.74-.02-2.83-.33-.55-.16-1.12-.4-1.73-.81-.31-.2-.62-.47-.92-.79-.15-.16-.3-.34-.44-.54-.06-.11-.15-.2-.2-.31-.06-.11-.12-.17-.26-.5-.17-.48-.43-1.05-.7-1.61.21.44.46.94.7,1.61l.12.28.07.14c.04.09.08.19.14.27.09.19.2.38.32.57.23.38.51.74.73,1.02.46.52.66.94-.4.59-.35-.28-.68-.65-.96-1.06-.13-.21-.26-.42-.36-.64-.06-.11-.1-.22-.14-.34l-.07-.17-.11-.31c-.38-1.12-.78-2.19-1.33-3.13-.55-.94-1.22-1.75-1.93-2.43-1.43-1.36-2.98-2.13-4.18-2.56-.88-.2-1.72-.27-2.5-.27-1.01,0-1.92,0-2.73.01-3.1.09-4.51,1.04-5.08,1.39-.56.41-.32.36.3.17.62-.2,1.64-.47,2.63-.53.98-.07,1.91.06,2.3.17.55.04.82.08.74.12-.02.02.05.04-.09.06-.15.01-.35.03-.62.05-.24.09-.87.14-1.9.36-3.89.03-6.3,2.61-7.15,5.63-.13.41-.23.75-.3,1.07l-.12.49-.05.24c-.06.33-.17.67-.31,1.03-.29.71-.83,1.46-1.7,2.06l-.48-.94c-1.92.75-3.23.44-3.99.34-.8-.12-1.2-.16-1.56-.09-.35.04-.64.16-1.14-.03-.48-.24-1.24-.63-2.02-2.35-.5-1.23-1-2.93-2.49-4.36,1.44.9,2.4,2.31,3.3,3.92.52.64.92.84,1.42,1.14-.39-.42-.63-.67-1-1.37-.55-1.26-1.08-2.46-1.93-3.45-.82-1-1.85-1.81-2.98-2.37.89.02,1.8.19,2.69.49-1.35-1.12-2.82-1.78-4.21-2.1-.7-.16-1.38-.24-2.05-.26-.33-.02-.67,0-.99,0h-.77s-.15.01-.15.01l-.3.02-.29.02h-.91c-.3.03-.6.05-.89.07-.58.06-1.13.14-1.66.28-1.07.27-2.06.71-2.95,1.3-1.81,1.15-3.2,3.01-4.06,5.28l-.3.69-.17.27c-.13.17-.25.36-.41.53-.31.34-.68.67-1.12.94.57,0,.85.46.3,1.29-.5.78-2.17,1.96-4.7,1.37-1.52-.85-.9-.98-.86-1.08.04-.08-.04-.14-.45-.41-.39-.28-1.21-.74-2.13-2.1.66.45,1.37.74,2.1,1.07.75.33,1.44.75,2.65,1.34.29-.29,1.21-.7,1.31-1.11-1.87-.06-3.94-.81-4.95-2.87-.96-2.62-2.4-4.4-3.78-5.46.9.74,1.75,1.73,2.34,2.77.58,1.02.95,2.09,1.18,2.85.02.08.03.11.05.15l-.08-.13c-.86-2-1.96-3.74-3.61-4.94-1.6-1.22-3.52-1.89-5.45-1.94-.24,0-.48-.02-.73,0l-1.19.02-.5.04-.23.02h-.12s-.06.02-.06.02h-.27c-.55,0-.5.02-.65.03l-.36.03c-.24.02-.47.06-.7.09-.46.07-.91.18-1.35.31-1.76.55-3.35,1.68-4.45,3.19-1.21,1.27-1.35,1.42-1.18.74.19-.66.97-1.99,2.09-2.99-.96.75-1.69,1.64-2.25,2.62-.27.5-.51.99-.7,1.55-.22.58-.38,1.07-.51,1.51l-.15.44c-.04.1-.07.21-.12.31-.09.21-.2.42-.34.64-.28.43-.65.87-1.18,1.25.05-.55-.1-.98-.04-1.54.03-.28.09-.6.19-.99.04-.19.1-.41.16-.66.13-.39.22-.79.45-1.37.23-.6.48-1.24.84-1.85-.5.87-.97,2.13-1.19,2.83l-.21.6-.14.34c-.22.44-.52.85-.89,1.2-.73.7-1.76,1.1-2.88,1.09-.2-.21-.92-.66-1.29-1.22-.39-.53-.46-1.02-.15-.9-.13-.19-.28-.35-.4-.56-.08-.09-.12-.2-.2-.29-.06-.14-.09-.11-.26-.5-.95-2.65-2.63-4.95-5.08-6.41-1.2-.73-2.55-1.22-3.95-1.44-.7-.11-1.42-.15-2.15-.14-2.49,0-.54.06-2.87.07-2.34.08-4.57.85-6.43,2.3-1.87,1.39-3.19,3.68-3.86,5.78-.2.59-.25.63-.31.78-.08.14-.15.28-.24.41-.17.27-.39.49-.61.71-.47.4-1.02.69-1.6.76-.17.23-.6.56-1.68.6-.8-.12-1.52-.49-2.11-1.01-.29-.27-.55-.57-.77-.89-.11-.16-.2-.33-.29-.5-.1-.22-.12-.23-.29-.68-.84-2.64-2.36-4.93-4.64-6.4-1.12-.72-2.36-1.24-3.68-1.5-.65-.14-1.33-.19-2.02-.21-.91,0-1.82-.01-2.73-.02-2.91-.05-5.84,1.09-7.91,3.45-1.04,1.12-1.77,2.67-2.26,4.12-.13.38-.26.76-.39,1.14-.08.21-.18.42-.29.64-1.05.48-2.12.42-2.87.03-1.43.25-.89.71-.15,1.22.34.23.66.41.42.71-.21.21-1.21.84-3.23.07-1.16-.5-1.75-1.23-2.04-1.71-.29-.52-.28-.8-.23-1.03.09-.54.68-.28.82-.75.03-.34-.1-.98-.57-2.15-1.22-2.01-3.4-4.01-6.28-4.8-.71-.2-1.46-.32-2.23-.36-.39-.01-.78-.03-1.18,0l-1.14.02-.4.04-.37.04h-.09s-.34.02-.34.02h-.48s-.15.02-.15.02c-.41.03-.81.07-1.21.14-.79.13-1.58.35-2.35.68-1.53.65-2.95,1.74-4.01,3.19-.53.73-.97,1.51-1.31,2.4-.38.88-.65,1.67-.78,1.81-.66,1.14-1.89,1.98-3.15,2.01.72-.38,1.31-.78,1.82-1.27.26-.24.49-.51.69-.82.11-.15.18-.31.27-.47.05-.08.17-.44.25-.64.08-.23.18-.49.32-.82ZM170.69,93.79c.52-.12,1.15-.2,1.87-.27h.62c.19-.01.11-.02.19-.02l.22-.03.46-.05c.41-.01.82-.02,1.23-.03.26-.01.52-.02.78,0,1.04.03,2.1.23,3.06.61,1.93.75,3.32,2.2,3.78,3.25-1.46-1.04-2.77-1.8-4.28-2.43-.76-.31-1.56-.56-2.47-.72-.23-.03-.46-.07-.7-.11l-.37-.04-.19-.02h-.1s-.32-.02-.32-.02h-.34s-.07-.02-.07-.02l-.13-.02-.26-.03-.27-.03-.14-.02-.69-.02c-.6-.03-1.24-.06-1.9,0ZM36.05,103.8c-.14-1.13-.18-2.56.47-3.97.61-1.41,1.87-2.73,3.52-3.36-1.09.61-2.11,1.57-2.84,2.84-.76,1.28-1.03,2.8-1.15,4.49ZM126.11,402.83c-.13.05-.22.08-.33.12-1.8.27-2.96.73-3.61,1.02-.66.27-.83.4-.67.3.32-.16,2.09-1.1,4.62-1.44ZM139.46,408.38c1.04,1.12,1.09.98.81.35-.82-.71-3.09-3.49-6.75-4.93.46.33,1.11.71,2.09,1.36.97.65,2.3,1.56,3.85,3.22ZM457.77,148.93c.69-.43,1.58-.9,2.19-1.09l.09-.02s-.06.04-.07.05c-1.1.65-2.01,1.37-2.44,1.78-.49.42-.69.63-.75.63-.12.01.39-.7,1-1.36Z"/>
    <path class="cls-2" d="M55.44,96.03c.58.73.59,1.08.6,1.38.44.4.68.6.66.4-.04-.19-.31-.84-1.25-1.78Z"/>
    <path class="cls-2" d="M315.62,103.63l.14-.03c.06-.08.08-.15.08-.22l-.22.25Z"/>
    <path class="cls-2" d="M42.6,384.76c-.6-.34-1.13-.64-1.61-.9-.54-.3-.97-.62-1.33-.95-.72-.64-1.13-1.25-1.42-1.76-.14,0-.07.35.53,1.08.3.35.75.8,1.41,1.25.63.42,1.68.91,2.41,1.28Z"/>
    <path class="cls-2" d="M175.85,412.05c-.15.06-.3.08-.47.11,1.46.02-1.08.03.37.05l-.3.04c-.2.03-.41,0-.61-.06.28.13.51.16.7.2l.14.03h.03s.02.01.02.01h-.24c-.57,0-.2.02-.2.02.15.02.29.03.43.04l.21.02h.05s.03,0-.09.01h-.47c.14.06.28.12.44.16-.14-.25-.5-.58-.02-.65Z"/>
    <path class="cls-2" d="M221.78,408.43c.94-.21,2.01,0,2.94.11l-.17-.54c-2.12-.46-3.93.02-4.57.33-.64.38-.28.23,1.8.1Z"/>
    <path class="cls-2" d="M179.75,412.73c.4.18,1.1-1.22,2.46-2.79,1.33-1.57,3.51-3.35,6.29-4.04-.34.06-.64.18-.97.26.67-.8-.53-.87-2.5.18-.96.53-2.06,1.38-3.03,2.52-.48.58-.94,1.21-1.34,1.9-.39.64-.81,1.57-.91,1.97Z"/>
    <path class="cls-2" d="M189.8,405.65c1.73-.26,3.56-.04,5.19.55.81-.2-2.09-1.09-5.19-.55Z"/>
    <path class="cls-2" d="M144.57,413.11c.92.14.05-1.19.54-.96-.04-.57-.38-.06-.98.16.46.21-.4.48-.55.61-.1.07-.09.16.09.23.09.03.23.05.41.05h.15s.34,0-.36-.02c.15,0,.3,0,.47-.01h.25s.13-.01.13-.01h-.48c.08-.02.2-.03.34-.05Z"/>
    <path class="cls-2" d="M184.29,411.05c-.63.13-1.27.35-1.92.63-.34,1-.5,1.95-.56,2.9.54-1.31,1.44-2.57,2.47-3.53Z"/>
    <path class="cls-2" d="M155.91,407.93c2.47-.92,5.22-.85,7.59.21-.06-.21.93,0,2.03.63-2.07-1.41-4.71-1.95-6.64-1.76-1.94.17-3.13.83-2.98.92Z"/>
    <path class="cls-2" d="M165.53,408.77c2.09,1.36,3.53,3.44,4.23,4.69.04.06.06.11.09.15-.02-.04-.04-.08-.07-.16-.28-.61-.85-1.63-1.63-2.51-.77-.9-1.75-1.68-2.62-2.17Z"/>
    <path class="cls-2" d="M178.04,418.83c-.62.04-1.25-.06-1.85-.12l-.4-.04c-.86-.04-1.75.02-2.59-.13-.85-.17-1.66-.57-2.33-1.15.71.65,1.58,1.08,2.5,1.25.91.14,1.87.12,2.84.19.61.02,1.23.08,1.84,0Z"/>
    <path class="cls-2" d="M94.69,406.88c-2.8.83-5.2,2.88-6.51,5.53-.04,1.02.94-1.2,3.33-3.17.72-.71,1.83-1.38,2.62-1.75.8-.38,1.25-.56.56-.61Z"/>
    <path class="cls-2" d="M115.25,420.16c-.73,0-1.27-.09-1.43-.15-.5-.03-.44-.05-.61-.07-.12-.03-.23-.05-.34-.07-.12-.02-.16-.05-.33-.08-.27-.03-.33-.05-.43-.08-.38-.12-.71-.23-1.17-.4-.2.44-.42.87-.65,1.29.56.03,1.13,0,1.69-.06,1.19-.05.79-.12,1.88-.17.47-.06.94-.11,1.39-.21Z"/>
    <path class="cls-2" d="M96.13,410c-.14.12-.75.34-1.38.72-.64.37-1.28.9-1.65,1.33-.38.43-.51.73-.27.57.26-.1.85-.8,2.48-1.39.18-.32,1.69-.77,2.59-.82.44-.03.7-.07.51-.18-.19-.09-.85-.34-2.28-.23Z"/>
    <path class="cls-2" d="M39.46,370.17c-.21.73-.26,1.49-.23,2.25.7.03,1.41.09,2.12.18-.71-.65-1.43-1.5-1.89-2.43Z"/>
    <path class="cls-2" d="M41.9,287.27c.73.79.97,1.32,1.21,1.59.23.28.4.34.59.39.19.05.35.1.52.43.15.32.28,1.01-.02,2.11.12.64.51-.24.55-1.29.06-1.02-.24-2.06.19-1.47-.77-1.63-1.8-2.47-2.39-2.74-.63-.25-.72.02-.66.98Z"/>
    <path class="cls-2" d="M44.95,289.03c.24.52.46,1.12.6,1.81-.18-1.11-.44-1.55-.6-1.81Z"/>
    <path class="cls-2" d="M424.99,414.51c-.63-.36-.86-1.13-.93-1.77-.08-.19-.11-.32-.24-.59.12.27.13.41.2.61-.03.45-.09,1.04.12,1.56.27.13.56.2.85.19Z"/>
    <path class="cls-2" d="M416.78,407.53c-.34-.76-.77-1.5-1.28-2.21-1.84-.3-3.66-.2-5.31.22.93-.02,2.32.07,3.61.46,1.29.37,2.44,1.01,2.98,1.53Z"/>
    <path class="cls-2" d="M158.46,101.19l-.09.36c.31.33.84.34,1.69-.17-.6.11-1.14.02-1.59-.19Z"/>
    <path class="cls-2" d="M222.05,102.38c-.16.06-.33.1-.5.14.41.34.91.61,1.49.77-.36-.26-.7-.58-.99-.91Z"/>
    <path class="cls-2" d="M281.9,100.84c-.09-.12-.22-.21-.31-.34-.07-.05-.1-.13-.16-.18-.05-.1-.06-.02-.23-.41-1.14-3.23-3.32-5.67-5.81-7.2,3.13,1.79,4.82,4.69,5.59,7.32.13.44.1.36.11.51.03.09.03.2.06.28.04.18.11.31.17.4.15.17.29.08.58-.39Z"/>
  </g>
  <path class="cls-2" d="M370.91,287.23v-104.49c0-14.4-11.72-26.12-26.12-26.12h-172.41c-14.4,0-26.12,11.72-26.12,26.12v104.49c0,14.4,11.72,26.12,26.12,26.12h14.93v44.78c0,9.99,12.12,14.91,19.11,7.92l52.7-52.7h85.67c14.4,0,26.12-11.72,26.12-26.12ZM214.17,246.18c-6.18,0-11.2-5.01-11.2-11.2s5.01-11.2,11.2-11.2,11.2,5.01,11.2,11.2-5.01,11.2-11.2,11.2ZM258.95,246.18c-6.18,0-11.2-5.01-11.2-11.2s5.01-11.2,11.2-11.2,11.2,5.01,11.2,11.2-5.01,11.2-11.2,11.2ZM303.73,246.18c-6.18,0-11.2-5.01-11.2-11.2s5.01-11.2,11.2-11.2,11.2,5.01,11.2,11.2-5.01,11.2-11.2,11.2Z"/>
  <rect class="cls-1" x="76.64" y="129.91" width="363.87" height="258.2"/>
  <path class="cls-2" d="M75,153.57c.41.6,1.22-3.12,1.78-3.8l-.31-6.93c-.38,3.55-.83,10.28-1.47,10.73Z"/>
  <path class="cls-2" d="M76.79,149.77l.46,10.37c.33-9.24.02-10.94-.46-10.37Z"/>
  <polygon class="cls-2" points="73.92 193.09 73.09 187.2 74.31 197.69 73.92 193.09"/>
  <path class="cls-2" d="M73.42,219.31c-.71-4.36-1.54,5.91-1.92,1.31-.04,7.12.51,13.23,1,18.72-.2-5.83.05-12.02.93-20.03Z"/>
  <path class="cls-2" d="M73.17,248.56c-.12-2.91-.39-5.93-.68-9.22.11,3.1.3,6.14.68,9.22Z"/>
  <path class="cls-2" d="M76.58,177.76c-.28.79-.99,2.31-1.43,8.11l1.3-4.03c.04-1.24.08-2.65.12-4.07Z"/>
  <path class="cls-2" d="M76.5,181.69l-.04.14c-.15,4.42-.25,7.48-.3,8.79.04-1.13.14-3.82.34-8.93Z"/>
  <path class="cls-2" d="M76.61,176.74c-.01.38-.02.65-.03,1.03.13-.39.17-.62.03-1.03Z"/>
  <path class="cls-2" d="M80.09,131.69c-.44,1.89-.59,4.35-.53,6.64.13,1.87.27,3.64.43,4.84.33,2.41.76,2.52,1.43-3.6-.19-1.07-.35-1.51-.52-1.66-.18-.12-.37.08-.56.11-.19.03-.38-.11-.52-.98-.13-.87-.28-2.5.27-5.36Z"/>
  <path class="cls-2" d="M78.24,171.73l.56-10.98c-.32.21-.84,2.18-1.09-.84l.53,11.83Z"/>
  <polygon class="cls-2" points="78.48 177.12 78.24 171.73 78.03 175.8 78.48 177.12"/>
  <path class="cls-2" d="M74.78,229.76c.4,4.76.31,9.96.24,15.83.4-6.28.7-12.78.85-18.95-.35-.88-.96-3.61-1.09,3.13Z"/>
  <path class="cls-2" d="M75.72,206.41c.01.33.03.75.04,1.06.12-.65.16-1.17-.04-1.06Z"/>
  <path class="cls-2" d="M73.52,303.34c.08-.32.16-.6.24-.92-.07-.08-.13-.13-.2-.22l-.04,1.14Z"/>
  <path class="cls-2" d="M76.12,225.59c.35-4.72.13-7.55-.16-10.25.03,3.54,0,7.28-.09,11.3.16.4.27.47.25-1.05Z"/>
  <path class="cls-2" d="M73.31,264.68c.32-2.45.6-5.24.87-8.17-.44,2.39-1.16,7.29-.87,8.17Z"/>
  <path class="cls-2" d="M75.39,209.05l-.04-.71c-.3,1.54-.17,1.35.04.71Z"/>
  <path class="cls-2" d="M75.39,209.05c.11,2.44.36,4.36.57,6.29-.02-2.88-.08-5.55-.2-7.87-.1.58-.25,1.17-.37,1.58Z"/>
  <path class="cls-2" d="M80.76,321.06c-1.09-.87-1.8-13.32-.33-24.01-.56-10.58-4.4-3.78-6.68,5.37.48.34.92.35,1.3,11.24.7-3.79,2.04-24.06,2.81-14.87.2,14.4-.7,11.78-1.47,18.76,1.54-5.91,1.54,18.36,3.66,15.29l-.39-12.64c.32-.23.71,4.36,1.09.87Z"/>
  <path class="cls-2" d="M74.41,281.73l-.02-4.47c-.32,5.09-.86,8.72-1.91,15.41.35,7.45.72,9.01,1.08,9.53l.73-22,.13,1.53Z"/>
  <path class="cls-2" d="M74.9,257.19c1.12,3.52,1.36,14.27,2.84,7.74.26-13.12-.77-9.22-1.09-17.07-.25,21.17-.52-6.1-1.6,9.17-.1-4.17-.07-7.91-.02-11.44-.24,3.81-.52,7.48-.84,10.93.03-.19.06-.33.09-.48v-.1s.02.02.02.02c.18-.91.28-1.21.16-.18,0,.07,0,.33.01.44.16.15.3.54.43.97-.41,6.12-.34.96-.43-.97-.06-.07-.11-.24-.18-.26,0,.02,0,.05-.02.08l.11,21.22c.28-4.48.4-10.1.51-20.07Z"/>
  <path class="cls-2" d="M83.73,150.96c-.12.65-.21.62-.3.67.11,1.38.2,1.9.3-.67Z"/>
  <path class="cls-2" d="M82.77,159.67c-.13-1.55-.58-2.85-.32-7.85.47-4.34.58.04.98-.18-.24-3.03-.59-10.59-1.43-1.14l.13,1.5c-.64,8.52-2.43,19.45-2.56,17.95,1.16-2.46,1.99-4.64,3.2-10.28Z"/>
  <path class="cls-2" d="M79.13,209.04l.14,17.67,1.28-8.96-.64.44c.51-10.03-.32-7.89-.77-9.15Z"/>
  <polygon class="cls-2" points="72.86 305.34 71.64 302.97 73.19 313.22 72.86 305.34"/>
  <polygon class="cls-2" points="72.42 328.29 71.33 327.41 71.84 333.49 72.42 328.29"/>
  <path class="cls-2" d="M70.19,370.21l.04,5.28v1.36c.03.6.03,1.21.07,1.81.08,1.2.22,2.4.44,3.59-.59-3.45-.31-6.04-.21-7.18.16-1.41.28-2.51.43-3.79-.32.22-.83,2.23-.77-1.07Z"/>
  <path class="cls-2" d="M80.94,278.91c-.13-1.55.07-3.27-.06-4.79l-.64.4c-.13,6.57.26,11.17.7,4.39Z"/>
  <path class="cls-2" d="M74.94,360.57c1.16-.8.95-7.43.93-14.82-.01.44-.02.87-.03,1.31-1.54-2.22-1.21,5.66-.89,13.52Z"/>
  <path class="cls-2" d="M75.87,344.04c0-2.28.04-4.6.15-6.83-.61-.88-.21,2.76-.15,6.83Z"/>
  <polygon class="cls-2" points="78.85 354.7 77.37 357.31 78.4 361.48 78.85 354.7"/>
  <path class="cls-2" d="M78.85,370.85l-.38,3.48c-.13,2.77-.25,5.57.43,8.28-.86-3.88-.18-7.82-.04-11.76Z"/>
  <path class="cls-2" d="M438.19,153.57c.41.6,1.22-3.12,1.78-3.8l-.31-6.93c-.38,3.55-.83,10.28-1.47,10.73Z"/>
  <path class="cls-2" d="M439.97,149.77l.46,10.37c.33-9.24.02-10.94-.46-10.37Z"/>
  <polygon class="cls-2" points="437.11 193.09 436.28 187.2 437.5 197.69 437.11 193.09"/>
  <path class="cls-2" d="M436.61,219.31c-.71-4.36-1.54,5.91-1.92,1.31-.04,7.12.51,13.23,1,18.72-.2-5.83.05-12.02.93-20.03Z"/>
  <path class="cls-2" d="M436.36,248.56c-.12-2.91-.39-5.93-.68-9.22.11,3.1.3,6.14.68,9.22Z"/>
  <path class="cls-2" d="M439.77,177.76c-.28.79-.99,2.31-1.43,8.11l1.3-4.03c.04-1.24.08-2.65.12-4.07Z"/>
  <path class="cls-2" d="M439.69,181.69l-.04.14c-.15,4.42-.25,7.48-.3,8.79.04-1.13.14-3.82.34-8.93Z"/>
  <path class="cls-2" d="M439.8,176.74c-.01.38-.02.65-.03,1.03.13-.39.17-.62.03-1.03Z"/>
  <path class="cls-2" d="M443.28,131.69c-.44,1.89-.59,4.35-.53,6.64.13,1.87.27,3.64.43,4.84.33,2.41.76,2.52,1.43-3.6-.19-1.07-.35-1.51-.52-1.66-.18-.12-.37.08-.56.11-.19.03-.38-.11-.52-.98-.13-.87-.28-2.5.27-5.36Z"/>
  <path class="cls-2" d="M441.43,171.73l.56-10.98c-.32.21-.84,2.18-1.09-.84l.53,11.83Z"/>
  <polygon class="cls-2" points="441.67 177.12 441.43 171.73 441.22 175.8 441.67 177.12"/>
  <path class="cls-2" d="M437.97,229.76c.4,4.76.31,9.96.24,15.83.4-6.28.7-12.78.85-18.95-.35-.88-.96-3.61-1.09,3.13Z"/>
  <path class="cls-2" d="M438.91,206.41c.01.33.03.75.04,1.06.12-.65.16-1.17-.04-1.06Z"/>
  <path class="cls-2" d="M436.71,303.34c.08-.32.16-.6.24-.92-.07-.08-.13-.13-.2-.22l-.04,1.14Z"/>
  <path class="cls-2" d="M439.31,225.59c.35-4.72.13-7.55-.16-10.25.03,3.54,0,7.28-.09,11.3.16.4.27.47.25-1.05Z"/>
  <path class="cls-2" d="M436.5,264.68c.32-2.45.6-5.24.87-8.17-.44,2.39-1.16,7.29-.87,8.17Z"/>
  <path class="cls-2" d="M438.58,209.05l-.04-.71c-.3,1.54-.17,1.35.04.71Z"/>
  <path class="cls-2" d="M438.58,209.05c.11,2.44.36,4.36.57,6.29-.02-2.88-.08-5.55-.2-7.87-.1.58-.25,1.17-.37,1.58Z"/>
  <path class="cls-2" d="M443.95,321.06c-1.09-.87-1.8-13.32-.33-24.01-.56-10.58-4.4-3.78-6.68,5.37.48.34.92.35,1.3,11.24.7-3.79,2.04-24.06,2.81-14.87.2,14.4-.7,11.78-1.47,18.76,1.54-5.91,1.54,18.36,3.66,15.29l-.39-12.64c.32-.23.71,4.36,1.09.87Z"/>
  <path class="cls-2" d="M437.6,281.73l-.02-4.47c-.32,5.09-.86,8.72-1.91,15.41.35,7.45.72,9.01,1.08,9.53l.73-22,.13,1.53Z"/>
  <path class="cls-2" d="M438.09,257.19c1.12,3.52,1.36,14.27,2.84,7.74.26-13.12-.77-9.22-1.09-17.07-.25,21.17-.52-6.1-1.6,9.17-.1-4.17-.07-7.91-.02-11.44-.24,3.81-.52,7.48-.84,10.93.03-.19.06-.33.09-.48v-.1s.02.02.02.02c.18-.91.28-1.21.16-.18,0,.07,0,.33.01.44.16.15.3.54.43.97-.41,6.12-.34.96-.43-.97-.06-.07-.11-.24-.18-.26,0,.02,0,.05-.02.08l.11,21.22c.28-4.48.4-10.1.51-20.07Z"/>
  <path class="cls-2" d="M446.92,150.96c-.12.65-.21.62-.3.67.11,1.38.2,1.9.3-.67Z"/>
  <path class="cls-2" d="M445.96,159.67c-.13-1.55-.58-2.85-.32-7.85.47-4.34.58.04.98-.18-.24-3.03-.59-10.59-1.43-1.14l.13,1.5c-.64,8.52-2.43,19.45-2.56,17.95,1.16-2.46,1.99-4.64,3.2-10.28Z"/>
  <path class="cls-2" d="M442.32,209.04l.14,17.67,1.28-8.96-.64.44c.51-10.03-.32-7.89-.77-9.15Z"/>
  <polygon class="cls-2" points="436.05 305.34 434.83 302.97 436.37 313.22 436.05 305.34"/>
  <polygon class="cls-2" points="435.61 328.29 434.52 327.41 435.03 333.49 435.61 328.29"/>
  <path class="cls-2" d="M433.38,370.21l.04,5.28v1.36c.03.6.03,1.21.07,1.81.08,1.2.22,2.4.44,3.59-.59-3.45-.31-6.04-.21-7.18.16-1.41.28-2.51.43-3.79-.32.22-.83,2.23-.77-1.07Z"/>
  <path class="cls-2" d="M444.13,278.91c-.13-1.55.07-3.27-.06-4.79l-.64.4c-.13,6.57.26,11.17.7,4.39Z"/>
  <path class="cls-2" d="M438.13,360.57c1.16-.8.95-7.43.93-14.82-.01.44-.02.87-.03,1.31-1.54-2.22-1.21,5.66-.89,13.52Z"/>
  <path class="cls-2" d="M439.06,344.04c0-2.28.04-4.6.15-6.83-.61-.88-.21,2.76-.15,6.83Z"/>
  <polygon class="cls-2" points="442.04 354.7 440.56 357.31 441.59 361.48 442.04 354.7"/>
  <path class="cls-2" d="M442.04,370.85l-.38,3.48c-.13,2.77-.25,5.57.43,8.28-.86-3.88-.18-7.82-.04-11.76Z"/>
</svg>