<?xml version="1.0" encoding="UTF-8"?>
<svg id="Capa_1" data-name="Capa 1" xmlns="http://www.w3.org/2000/svg" viewBox="0 0 517.2 529.4">
  <defs>
    <style>
      .cls-1 {
        fill: #00a1f2;
      }

      .cls-2 {
        fill: none;
        stroke: #00a1f2;
        stroke-dasharray: 15;
        stroke-linecap: round;
        stroke-linejoin: round;
        stroke-width: 5px;
      }
    </style>
  </defs>
  <g>
    <circle class="cls-1" cx="66.65" cy="259.41" r="11.56"/>
    <circle class="cls-1" cx="449.02" cy="259.41" r="11.56"/>
  </g>
  <path class="cls-1" d="M168.43,125.88l4.49-3.08c-3.65,5.55-7.38,8.44-2.88,5.85-1.61-2.77,14.81-14.71,13.2-17.46l3-1.98c-.75.68-.74.93-1.48,1.6,5.99-3.7,2.13-5.17,8.82-11,2.39-1.97,4.26-3.15,3-1.42l4.43-5.33c1.49-1.35,1.51-.62.03.72l7.4-7.46v.12c.75-1.39,2.67-4.29,3.65-5.67,2.23-1.53-.74,1.17.02.97l3.67-4.58c2.27-1.06-.67,2.84-3.64,5.55,6.06-1.53,2.94-3.91,12.64-10.74l-3.68,4.09c3.77-1.19,6.42-4.62,11.65-8.14-1.46.61-10.88,6.63-6.86,1.69,1.44-1.06,3.21-2.61,5.23-5.42.79.77,3-1.73,5.95-4.66l.81,1.25c2.95-3.42,2.17-3.71,3.62-6.03,1.83-1.65,3.23-2.6,4.14-2.83.9-.22,1.55-.09,2.17,0,2.44-1.59,1.4-1.41.35-1.3-1.02.12-2.16.07,1-2.11,2.47-1.07,4.57-1.88,6.92-2.49,2.34-.6,4.93-1.14,8.33-1,3.68,1.34-.83.69.44,1.4,1.14-.09,2.35-.23,3.55-.14.79.32.39.55.2.68,1.4.32,1.59.09,2-.14.41-.2,1.03-.36,3.18.77.51-.17,1.16.3,1.97,1.05.42.35.77.91,1.19,1.44.2.27.41.56.63.86.24.34.48.7.73,1.06,2.01,2.9,4.5,6.25,7.52,8.07.86,1.49-1.21.04-1.26.8,7.33,5.88,6.17,5.15,12.64,9.54l3.83,5.36c-2.53-4.21,2.65-.71,7.14,2.41-.8-1.59-1.47-2.96-1.99-3.82l6.5,5.62c.54.91-.42.64-1.83.05.5.33.97.64,1.34.88,1.73,2.58.02,2.02-2.09,1.01-.5-.96-1-1.92-1.49-2.85-2.11-.91-4.19-1.65-4.5-.74.51.28,1.35.95,2.23,1.75-.56-.23-.96-.33-.89-.05.09.32.94.73,2.18,1.48l.17,2.53.79-.11,7.03,8.77c6.74,4.63,13.31,7.97,22.61,16.66-3.05-1.44-1.88.87-3.02,1.73-1.32-3.54-7.29-6.65-11.64-11.6,2.27,2.59,1.26,2.51.48,2.04l9.13,7.52c-1.02.61,1.1,2.4,2.89,4.94.04-3.26,7.17,5.25,10.99,8.21-.35.75-1.71.47-5.62-3.86,3.22,5.83,7.71,4.12,11.03,9.69-1-1.01-1.45-1.65-2.12-1.78,2.8,1.92,8.05,8.15,6.24,7.24l-1-1.01c6.36,7,19.95,20.74,22.33,20.41-.12.24-2.55.73-3.23.59l16.42,7.61c-2.23.09-1.14,6.96-7.26,1.97,1.39,1.79,3.12,3.99,6.84,6.99-.89-1.27-.91-4.43.65-3.03,2.66,5.44,2.06,3.57,5.84,9.79-1.34-1.91,2.32-1.88,4.78.8-.68-.14-1.65,2.01-2.77,1.24l8.13,4.74c-1.9-1.31-1.85,1.22-.97,3.19-.29-1.03,5.4,5.67,7.25,7.23l-2.23-3.18c6.81,7.63,9.61,4.76,16.55,12.16-1.23-.52-4.46.08-1.11,4.02,2.59.79,11.82,3.14,18.78,8.9l.65,1.76,5.39,4.36c-4.4-1.71-15.75-7.48-21.48-11.09,2.22,3.17.1,1.38,4.12,5.46.89,1.95-2.94-1.51-4.14-2.69l8.92,9.92c.7-1.49,8.19,6.28,8.76,5.02l-11.2-9.33c.7-1.49,8.95,3.01,15.31,10,1.23,2.16-3.22.6-3.45,1.1,1.23.52,6.95,5.76,7.28,6.65l-3.37-2.32c3.23,4.19,7.42,4.77,10.75,10.34,1.44,1.64,3.09,6.07,4.01,5.71-1.2-3.78,2.22-8.05,4.82-7.25.22.32,1.88,2.69,3.67,5.25,1.87,2.66,3.45,5.87,3.58,7.21.29,1.92-1.13,1.07-2.44.36-1.42-.7-2.78-1.24-2.49.17.2-.07.67.16,1.14.5.43.36.89.83,1.15,1.11.63,1.95-1.41-.17.45,3.66.42.04.79.59,1.12,1.29.32.7.43,1.59.57,2.21.14.63.1,1.04.17.85.08-.2.07-.97.04-2.77.75,2.09.78,3.3.8,4.57-.09,1.28-.15,2.63-.42,5.18.62-.75,1.33.46,1.71,2.67.33,2.18-.01,5.31-1.03,7.66-.2-.44-1.21.28-1.69.6-2.63,4.25-5.88,6.45-8.65,8.97-2.84,2.46-5.61,4.87-8.96,8.1-.88.32-4.43,3.11-3.52,1.3-.77,1.13-1.29,2.36-3.34,4.38-4.94,2.88,4.47-4.59.29-2.82.37.9-4.48,6.05-7.04,9.3,1.88.14,6.99-6.36,9.55-9.61,1.35,1.38-2.38,7.78-8.77,15.17-5.24,5.71-3.28,1.43-4.06,2.56-10.7,9.83-6.58,11.01-16.23,18.38-4.3,2.44-1.85-1.61-3.23-1.51,4.22-4.71,7.51-6.15,10.55-9.14l-4.19,3.23c1.16-1.69,3.97-4.82,5.87-6.16-3.66,1.99-17.82,16.87-26.61,23.91-1.15,1.68-3.33,4.37-1.81,3.6l2.44-2.58c3.04-1.55-3.86,5.62-.3,2.84-2.94,3.8-6.02,8.29-11.24,12.53l-1.88-.14c.39.2,3.73-2.44,4.79-4.05-1.58,2.38-8.71,5.75-9.64,9.2l4.06-2.56c-2.95,3.82-6.17,8.99-10.75,12.79,2.91-.88.88-1.06,5.04-2.82-4.03,1.08,11-10.47,5.3-7.92,4.42-1.65,5.95-4.62,11.14-7.39-.45-.21-2.06.75,1.69-2.54.07-.25.33-.74.5-1.05.12-.09.16-.13.27-.21-.09.06-.15.1-.24.15.11-.2.11-.23-.09.06-1,.68-1.86,1.17-2.32,1.25,1.04-2.48,6.77-7.95,8.32-10.21,2.28-1.89-.52,1.24.98.48l2.31-3.37c1,.46,6.84-4.22,2.24,1.05l4.55-4.32c3.06-2.15,6.87-5.5,8.83-7.98,2.28-1.89,4.59-6,3.29-3.63l6.64-7.28.24.12c7.08-6.63,13.2-15.08,22.48-21.43,2.17-2.45,4.38-5.02,8.52-8.6l1.38-.1c1.21-1.35,4.33-4.05,6.42-6.9,2.07-2.88,3.47-5.8,3.36-7.03,2.18-2.1,4.16-8.63,3.3-15.56-.33-3.46-1.44-6.91-2.73-9.92-1.28-3.04-2.98-5.54-4.26-7.48l-1.13.42c-.44-.64-.98-1.2-1.48-1.78-.51-.57-1.06-1.2-1.48-1.59-.91-.88-1.84-1.77-2.79-2.69-1.93-1.81-4.01-3.68-6.36-5.79l-.47.99c-4.37-3.33-9.16-10.57-15.2-16.68.69.15,2.13,1.79,3.02,3.07-5.45-9-16.23-14.43-21.48-22.31-1.88-1.41-2.95-2.71-3.9-4.06.15.15.3.28.44.38-.16-.17-.4-.43-.65-.7-.58-.86-1.17-1.76-1.84-2.7.49.87.99,1.68,1.49,2.33-1.26-1.27-3.23-3.14-5.26-4.88v-1.58c-.15-.15-.28-.27-.44-.42-1.52-2.16-1.83-1.15-1.46.43-1.06-.84-2.07-1.57-2.92-2.07-.19-2.76-5.27-4.61-5.91-8.01-1.91-.65-9.78-9.15-12.16-8.82.12-.24-.34-.89.67.13-1.9-2.29-3.79-4.58-6.03-6.11l.14-1.88-5.85-3.36c-2.11-3.43-2.89-4.95.6-2.88-7.74-5.64-5.76-5.08-12.5-9.72l.92-.35c-2.01-2.04-6.07-4.5-6.73-6.26-3.21-5.81-21.84-23.02-32.1-35.99.29,4.15-4.45-6.34-6.39-5.38-.21-1.13-1.55-3.03.7-1.49-6.27-5.62-8.03-9.79-13.31-12.76-.21-1.13,1.91.65,1.59-.22-.57-.39-2.25-1.54-2.58-2.43-.32-.88,1.23.52,2.35,1.29-6.03-6.11-8.03-5.39-9.78-4.57-2.4-3.73-3.99-5.21-7.03-6.64-.62-1.5-1.92-3.76,1.93-.06-2.02-2.22-12.08-13.81-13.35-13.01-.38-.93-2.83-3.1-3.5-3.55-4.61-4.91-4.92-5.43-9.61-10.09l1.1,1.48c-1.57-.33-2.48-1.24-3.8-2.57-.62-.68-1.32-1.42-2.21-2.14-.84-.79-1.91-1.49-3.17-2.19l.23-.07c-2.74-1.91-4.7-2.66-6-3.12-1.33-.38-2.05-.51-2.76-.6-1.46.04-2.72-.74-9.46-.92l.82,1.01c-.51,1.27-3.27,1.06-6.88,1.74-3.59.58-8.08,2.32-10.64,5.28.84-.44,1.63-.92,2.51-1.24-.75.71-1.66,1.5-2.87,2.17-1.12.67-2.35,1.28-3.65,1.87-2.58,1.18-5.25,2.25-6.74,3.48-.75.43.72-1.15,1.46-2.07-8.2,5.96.06,1.94-5.1,7.37-1.53.4-.09-2.66-3.82.74-2.24,1.29-8.78,11.95-14.76,15.65,1.51-.62,3-1.23.81,1.5-3.69,3.85-11.95,8.37-14.11,13.06-.6.35-.89.42-1.02.33-2.6,3.18-8.98,9.77-10.04,12.2-5.34-.12-16.97,18.9-19.33,16.32l-8.9,8.83v-.48c-5.94,5.39-7.4,7.96-8.85,10.51-1.5,1.11-.75-.06-.77-.3-8.92,7.61-9.66,8.53-15.52,16.59l-1.52-.11c-1.46,2.32-13.42,10.46-20.77,19.37,0-.17.01-.5.56-1.24-8.38,9.92-24.45,19.18-25,25.44l-5.43,6.65c8.16-7.42.06,2.43,3.8-.22-2.96,3.18-8.94,6.88-5.25,3.03l.74-.43c-.08-2.91-10.4,8.95-11.2,7.69-7.78,7.56-15.68,14.8-23.48,21.9-1.95,1.77-3.89,3.54-5.82,5.3-2.08,1.97-4.26,4.3-5.77,6.9-1.6,2.57-2.86,5.36-3.61,8.28-.82,2.9-1.19,5.91-1.11,8.89.51-.93,1.09-1.81,1.72-2.65-.23,2.63-.04,5.28.42,7.88.03,1.05-.13,1.83-.45,1.63-.27-.21-.95-1.39-1.21-4.33-.33,1.59.3,4.07,1.28,5.97.94,1.92,2.14,3.24,2.34,3.24.96,2.62,1.52,3.63,1.37,3.92-.1.26-.69-.32-1.39-1.15-1.4-1.66-2.86-4.57-2.2-2.88l1.05,2.23,1.25,2.12-.37-1.06c1.23,1.59,2.18,2.23,3.21,3.25,1.02.96,2.5,2.4,4.51,4.51,2.43,3,.62,2.14,1.63,3.27-.09.08.22.48,1.58,1.71l6.09,6.53-1.53-3.49c3.22,2.4,5.78,6.1,3.99,2.09,2.53,5.96,22.51,24.57,24.58,27.75,4.54,3.33,8.32,7.28,12.94,12.24-.97-1.4-.6-3.16,3.32,1.18-3.69.59,6.47,8.64,8.16,13.57-1.88-4.06,11.79,11.73,8.69,5.51,3.21,3.69-.62,1.01,1.43,4.18,8.91,7.54,17.2,18.97,27.44,29.03.45-.12-.78-2.28,1.79-.47l3.81,6.85c2.11,1.91,3.48.27,6.07,4.97-.26-.76-.65-1.9.76-.62,18.09,21.62,41.02,40.28,58.17,63.41-2.12-3.33-.28-1.52,1.79.58-1.2-1.51.75-.66.88-1.31l7.2,9.66c2.6.52,8.97,9.16,10.87,9.06l-2.81-2.55c4.72,2.44-2.15-7.71-.06-8.7-5.31-2.71-8.24-12.7-16.66-17.44-1.09-1.78,1.72.76,1.33-.37-2.3-1.04-4.41-2.94-7.75-7.01l.58.27c-10.39-10.46-14.11-15.66-25.15-28.01l.07,1.63c-2.36-2.66-2.64-3.44-3.6-4.83-4.02-1.8,6.87,7.27,2.98,5.84-1.69-4.93-17.39-18.1-17.79-22.14-3.79-3.95.21,2.03-3.58-1.93l-.52-1.52-1.59-.39c-2.39-2.69-3.03-4.58-2.71-5.07.55.67,1.83,1.67,2.52,2.31-2.65-3.91-9.3-9.27-10.22-10.6l3.35,4.08c-10.82-10.32-22.83-24.08-33.84-33.52l.39,1.14c-8.33-7.28-5.72-6.75-14.43-15.17l.39.23c-2.05-1.39-4.48-3.54-6.73-5.97,2.55,1.79-3.15-4.95.11-2.52-9.02-7.91-4.68-3.71-11.52-8.07l-.65-1.9c-2.42-1.4-2.87-1.29-7.22-5.49,3.96,3.07-1.75-3.67,2.8-.34-7.46-10.42-14.41-12.27-16.5-18.34-5.73-2.57,6.68,8.81,4.05,6.81,1.34,2.5-4.6-2.25-7.19-5.28-2.77-2.96-2.61-7.05-9.72-14.36.7.74.87.66,1.56,1.4-2.09-3.14-6.19-4.95-7.51-8.52-1.26-.46-1.82-1.67-2.36-2.61-.44-1-.93-1.76-1.85-1.78,1.09,2.55,2.61,4.88,4.45,6.89-1.62-1.63-3.48-3.19-4.93-5.6-1.46-2.35-2.63-5.6-2.15-9.7.19.32.42,1.07.65,1.93.28.84.61,1.79.87,2.56.19-2.28-.92-4.35-.11-6.7.89.42.69,2.83,1.22,5.73.43,2.88,1.7,6.2,3.53,7.83-.23-1.15-1.52-2.91-2.12-4.46-.71-1.51-.83-2.56.33-1.64-1.64-1.3-1.83-3.53-1.66-5.89.22-2.41.88-4.89,1.04-7.94l.88.74c.07-.45.13-1.16.37-1.92.19-.78.49-1.64.98-2.33-.17,1.09-.15,2.21-.14,3.25.32-2.28,1.85-4,3.42-5.37l2.75-2.16c1.03-.85,2-1.76,2.85-2.81-2.02,1.95-3.19,2.98-3.89,3.46-.69.48-.77.35-.91.16-.22-.4,0-1.41-1.66-.22.78-1.15,1.87-2.28,2.69-3.11.84-.84,1.57-1.48,2.23-1.98,1.31-1,2.33-1.45,3.41-1.91,2.16-.93,4.54-1.92,9.94-7.48-1.41,1.57-6.13,4.99-4.11,2.36,2.28-1.88,5.38-4.29,7.08-5.13,7.24-7.29-1.91.29.77-3.23,3.44-1.47,3.26-3.88,6.21-7.31l.79.77c8.92-7.61.64-3.81,8.82-10.5l-2.15,4.19,3.68-4.09.05,1.69c3.66-4.82,5.16-5.93,9.63-9.74-1.52.39-.84-1.97,2.87-5.59,3-1.98-.7,2.13,4.48-3.08-.72,1.65-1.42,3.53-4.43,5.02.01.49-.7,1.63-.69,2.12,3.26-2.1,7.01-6.51,8.92-8.37-.77.68-1.69,1.49-2.25,1.81l6.61-8.49c1.49-.86.77.3.05,1.45,1.47-1.58,2.19-2.98,4.41-5.25.03,1.21.81,1.75-2.13,5.16l6.62-7.75c.76-.19,4.49-2.84,3.77-1.69,4.42-3.52,8.73-10.83,14.59-15.5.16-.39.6-1.05,1.66-2.24,5.19-4.72,10.43-8.23,15.56-14.88l4.51-2.11c4.43-4.78-6,2.97,1.38-4.98,5.17-5.69,3.01-1,5.26-2.54,2.19-3.23,5.82-9.02,11.8-12.96-1.47,1.84-2.95,2.93-4.44,4.53ZM225.73,69.71c-.96,1.25-2.7,3.91-3.97,4.23.4-2.14,1.8-2.65,3.97-4.23ZM314.81,88.17c-1.06-.58-2.17-1.99-3.27-3.74,1.08.99,2.2,2.21,3.27,3.74ZM428.37,341.11c.04-.06.06-.1.08-.15,2.8-2.1,1.79-1.37-.08.15ZM422.85,345.76c-.42.61-.27.69.06.59.17-.55,1.32-1.68,2.7-2.91-.57.15-1.38.65-2.76,2.32ZM39.69,289.46l-.76-1.21c2.42,2.06,1.6,1.62.76,1.21Z"/>
  <rect class="cls-2" x="121.26" y="122.84" width="273.15" height="273.15" transform="translate(258.95 -106.34) rotate(45)"/>
  <g>
    <path class="cls-1" d="M202.06,242.81v-5.72c4.38-2.11,6.23-7.37,4.12-11.75-2.11-4.38-7.37-6.23-11.75-4.12-4.38,2.11-6.23,7.37-4.12,11.75.87,1.8,2.32,3.25,4.12,4.12v5.72c.03,2.11,1.77,3.79,3.87,3.76,2.06-.03,3.73-1.7,3.76-3.76Z"/>
    <path class="cls-1" d="M288.63,251.55c-18.47,13-43.11,13-61.58,0-32.81,15.87-49.79,56.39-49.79,94.28,0,2.1,1.69,3.81,3.79,3.82,0,0,.02,0,.03,0h153.53c2.1,0,3.81-1.69,3.82-3.79,0,0,0-.02,0-.03,0-37.89-16.98-78.41-49.79-94.28Z"/>
    <path class="cls-1" d="M262.99,207.64c-3.14,1.15-6.58,1.22-9.77.19l-37.08-14.19-.65-.27c-11.88,28.29,12.15,61.28,42.35,60.36,30.21.89,54.17-32,42.39-60.32l-.65.23-36.59,14Z"/>
    <path class="cls-1" d="M194.43,177.11v36.05c2.51-.61,5.12-.61,7.63,0v-33.12c14.11,5.45,39.24,15,53.57,20.53,1.5.49,3.13.46,4.62-.08l29.38-11.26c4.99-1.9,28.03-10.72,33.57-12.86,2.95-.95,4.97-3.69,5-6.79.09-3.04-1.79-5.8-4.65-6.83l-63.3-26.36c-1.62-.57-3.39-.54-5,.08l-63.03,26.25c-7.62,3.16-5.41,13.03,2.21,14.38Z"/>
  </g>
</svg>